<svg xmlns="http://www.w3.org/2000/svg" viewBox="0 0 1069.67 350.42"><defs><style>.\32 aaef94a-bb8f-485a-90ec-fac5ca6426a7{fill:#000029;}.d6650e87-eebd-434c-b722-9eddd690868f{fill:#666;}.bf26115e-596c-45fc-a928-097a3375ce8b{fill:#009688;}.ece22791-d9d7-4389-90c4-522671f98bc0{fill:#4fc3f7;}.\33 351c02e-42a9-49dd-bbda-e657abdbc829{fill:#ff9800;}.\31 1874a20-da25-4049-84c3-a416bdd97931{fill:#01579b;}.f8553bf9-5837-432f-8394-707c753d9add{fill:#ffb74d;}.\31 e524ec7-4073-42fd-b62a-2973b2ff163c{fill:#895646;}.\35 bcbfd6a-2187-4ff6-a089-80d1ee806e58{fill:#47006a;stroke:#000;stroke-width:0.25px;}.\32 e913b3b-4aa6-4cab-a96b-201a079bd251,.\35 bcbfd6a-2187-4ff6-a089-80d1ee806e58{stroke-miterlimit:10;}.e1da2d3a-9296-43bb-8422-b2659b54a17b{fill:gray;}.\39 bdf3a9a-f875-4628-b8ef-f80dbb76e1ba{fill:#b4defb;}.\34 9dda92c-f507-4643-aff7-2f4894b82fe3{fill:#faefde;}.fdf7bf03-c8a4-4596-8bf5-1e516db96eb4{fill:#8d6c9f;}.\34 b9837ac-b7d9-4c1d-a1e0-848522514302{fill:#fad6be;}.\35 b3904d8-9f6f-43be-bf1f-e9cd16cfb14b{fill:#00d0ff;}.a40398f6-3658-42b3-8f54-293426f826e2{fill:#ff74f9;}.\32 e913b3b-4aa6-4cab-a96b-201a079bd251{fill:none;stroke:#8d6c9f;stroke-width:5px;}.dc51c2ec-4de0-4e35-b0bd-9bb0a423fe15{fill:#00f406;}</style></defs><title>Ресурс 4</title><g id="307dd37f-bf2c-43ae-99bb-516f3545bc32" data-name="Слой 2"><g id="bdf62d82-0df6-45d7-abfb-4ceb28abab5d" data-name="Слой 1"><ellipse class="2aaef94a-bb8f-485a-90ec-fac5ca6426a7" cx="268.21" cy="305.17" rx="24.38" ry="24.42"/><ellipse class="2aaef94a-bb8f-485a-90ec-fac5ca6426a7" cx="136.37" cy="305.17" rx="24.38" ry="24.42"/><ellipse class="d6650e87-eebd-434c-b722-9eddd690868f" cx="136.37" cy="305.17" rx="9.03" ry="9.05"/><ellipse class="d6650e87-eebd-434c-b722-9eddd690868f" cx="268.21" cy="305.17" rx="9.03" ry="9.05"/><path class="bf26115e-596c-45fc-a928-097a3375ce8b" d="M34.68,57.32H16.26A16.27,16.27,0,0,1,0,41V37.42A16.27,16.27,0,0,1,16.26,21.14H61.34A16.26,16.26,0,0,1,76.8,32.39l4.44,13.68A16.26,16.26,0,0,0,96.7,57.32h238A16.28,16.28,0,0,1,349.21,81l-62,122.12A16.24,16.24,0,0,1,272.7,212H126.25A16.27,16.27,0,0,0,110,227.16l-.19,2.85a16.29,16.29,0,0,0,5.72,13.55l.91.77a16.2,16.2,0,0,0,10.5,3.85H277.69a16.27,16.27,0,0,1,16.25,16.74h0a16.27,16.27,0,0,1-16.25,15.83H111.34A16.25,16.25,0,0,1,100,276.16L80.92,257.61a16.25,16.25,0,0,1-4.94-12l1.63-98.48a16,16,0,0,0-1-5.85L50,68A16.26,16.26,0,0,0,34.68,57.32Z"/><path class="ece22791-d9d7-4389-90c4-522671f98bc0" d="M460.64,230.33s-65.05,58.89-71.88,73.86-4.88,43.15,0,44.91,278.08,1.76,286.86,0-92.69-96.87-92.69-96.87S592,203.15,460.64,230.33Z"/><path class="3351c02e-42a9-49dd-bbda-e657abdbc829" d="M461,229.72s35.4,40.44,46.82,45.2,41.12,1.19,46.83-2.38S662,167.87,662,167.87L419.87,182.14Z"/><path class="11874a20-da25-4049-84c3-a416bdd97931" d="M537.26,302.33c-24.19,0-47.64-19.49-69.67-57.95a346.28,346.28,0,0,1-24.87-54.61l10.9-5.28-1.09-19.62L659.28,148.4,650,169.84a535.79,535.79,0,0,1-34,64.47C587.75,279.45,561.26,302.33,537.26,302.33ZM468.09,190.94c12.35,31,39.69,84.14,69.17,84.14,16,0,38.48-27.15,62.89-55.42,10.81-12.51,57-53.68,62.56-64.73Z"/><path class="f8553bf9-5837-432f-8394-707c753d9add" d="M449.77,113.43,574.43,19.36l68.87,94.07-33.13,83.71s-21.79,25.4-42.71,27.28-54,3.59-84.52-10-59.32-52.12-55.83-76.58S449.77,113.43,449.77,113.43Z"/><path class="1e524ec7-4073-42fd-b62a-2973b2ff163c" d="M392.84,207.1V115.35S417.43,19,484.65,4.33s104.93,12.33,114,15.42S661.73,49.82,663.36,113s.82,93.29-8.19,94.84-51.65,2.31-54.11,1.54,6.56-88.67,0-101.78S579.75,66,557.61,71.41s-39.35,26.21-57.38,32.38S456,128.46,456,137.71s-4.1,54.75,3.28,60.14,24.59,9.25,23.77,21.59,4.1,13.88-1.64,14.65S460.06,238,451,240.26,413.33,205.56,392.84,207.1Z"/><circle class="1e524ec7-4073-42fd-b62a-2973b2ff163c" cx="488.11" cy="142.61" r="14.5"/><polygon class="5bcbfd6a-2187-4ff6-a089-80d1ee806e58" points="659.23 345.5 614.04 299.69 627.36 285.87 672.55 331.67 659.23 345.5"/><circle class="1e524ec7-4073-42fd-b62a-2973b2ff163c" cx="576.49" cy="142.61" r="14.5"/><circle class="e1da2d3a-9296-43bb-8422-b2659b54a17b" cx="605.46" cy="266.43" r="57.12"/><circle class="9bdf3a9a-f875-4628-b8ef-f80dbb76e1ba" cx="605.46" cy="266.43" r="37.24"/><polygon class="49dda92c-f507-4643-aff7-2f4894b82fe3" points="739.83 308.91 739.83 116.69 831.75 116.69 831.75 47.95 957.11 47.95 957.11 151.97 1049.63 151.97 1049.63 308.91 739.83 308.91"/><path class="fdf7bf03-c8a4-4596-8bf5-1e516db96eb4" d="M1047.69,146.45H972c-4.63,0-8.39-3.17-8.39-7.09V49.23c0-3.92-3.76-7.09-8.39-7.09H833.69c-4.63,0-8.39,3.17-8.39,7.09V104c0,3.91-3.76,7.09-8.39,7.09H741.77c-4.64,0-8.39,3.17-8.39,7.09V307.64c0,3.92,3.75,7.09,8.39,7.09h305.92c4.64,0,8.39-3.17,8.39-7.09V153.54C1056.08,149.62,1052.33,146.45,1047.69,146.45Zm.33,158.74H746v-16.9h.32V129.06c0-3.91,3.76-7.09,8.4-7.09h75.13c4.64,0,8.4-3.17,8.4-7.09V60.14c0-3.92,3.76-7.1,8.39-7.1h95.66c4.63,0,8.4,3.18,8.4,7.1v90.12c0,3.92,3.75,7.09,8.39,7.09h75.73c4.64,0,8.4,3.17,8.4,7.09V288.29H1048Z"/><rect class="fdf7bf03-c8a4-4596-8bf5-1e516db96eb4" x="737.57" y="287.29" width="311.74" height="25.36"/><path class="4b9837ac-b7d9-4c1d-a1e0-848522514302" d="M1043.26,281.52v11c0,5.11-3.76,9.24-8.4,9.24H754.43c-4.65,0-8.41-4.13-8.41-9.24v-11Z"/><path class="5b3904d8-9f6f-43be-bf1f-e9cd16cfb14b" d="M831.8,122.07c-.27,5.47-4.47,9.86-9.56,9.86H762.63c-5.09,0-9.29-4.39-9.57-9.86Z"/><path class="a40398f6-3658-42b3-8f54-293426f826e2" d="M944.1,53a12.12,12.12,0,0,1-11.91,11.62H857.92A12.14,12.14,0,0,1,846,53Z"/><path class="2e913b3b-4aa6-4cab-a96b-201a079bd251" d="M792.75,207H774.36a2.7,2.7,0,0,1-2.58-2.82V183a2.71,2.71,0,0,1,2.58-2.82h13.55a2.71,2.71,0,0,0,2.59-2.81V176a2.71,2.71,0,0,0-2.59-2.82H776.62a2.7,2.7,0,0,1-2.58-2.82V165.4a2.7,2.7,0,0,1,2.58-2.81h21a2.71,2.71,0,0,1,2.59,2.81v22.54a2.71,2.71,0,0,1-2.59,2.82H784a2.71,2.71,0,0,0-2.58,2.82h0A2.72,2.72,0,0,0,784,196.4h8.71a2.71,2.71,0,0,1,2.59,2.81v4.93A2.71,2.71,0,0,1,792.75,207Z"/><path class="2e913b3b-4aa6-4cab-a96b-201a079bd251" d="M896.34,124.2h-3.22a3.38,3.38,0,0,1-3.23-3.52V104.07c0-2.7-2.66-4.39-4.81-3.07h0a3.09,3.09,0,0,1-4.4-1.33l-1.59-3.07a3.7,3.7,0,0,1,1.22-4.8l14.45-8.91c2.15-1.32,4.81.37,4.81,3.07v34.72A3.38,3.38,0,0,1,896.34,124.2Z"/><path class="2e913b3b-4aa6-4cab-a96b-201a079bd251" d="M990.9,205.55v3.52a3.38,3.38,0,0,0,3.22,3.53h8.72a3.38,3.38,0,0,1,3.22,3.52h0a3.38,3.38,0,0,1-3.22,3.52h-4.2a3.38,3.38,0,0,0-3.22,3.52v3.52a3.38,3.38,0,0,0,3.22,3.52h4.2a3.38,3.38,0,0,1,3.22,3.53h0a3.38,3.38,0,0,1-3.22,3.52h-6.78a3.38,3.38,0,0,0-3.23,3.52v3.52a3.38,3.38,0,0,0,3.23,3.52h16.46a3.38,3.38,0,0,0,3.23-3.52V205.55a3.39,3.39,0,0,0-3.23-3.52h-18.4A3.38,3.38,0,0,0,990.9,205.55Z"/><path class="fdf7bf03-c8a4-4596-8bf5-1e516db96eb4" d="M770.49,292.79h0a6.77,6.77,0,0,1-6.46-7v-8.46a6.77,6.77,0,0,1,6.46-7h0c3.56,0,6.45,3.15,6.45,7v8.46C776.94,289.64,774.05,292.79,770.49,292.79Z"/><path class="fdf7bf03-c8a4-4596-8bf5-1e516db96eb4" d="M801.47,292.79h0a6.77,6.77,0,0,1-6.46-7v-8.46a6.77,6.77,0,0,1,6.46-7h0c3.56,0,6.45,3.15,6.45,7v8.46C807.92,289.64,805,292.79,801.47,292.79Z"/><path class="fdf7bf03-c8a4-4596-8bf5-1e516db96eb4" d="M832.45,292.79h0a6.77,6.77,0,0,1-6.46-7v-8.46a6.77,6.77,0,0,1,6.46-7h0c3.56,0,6.45,3.15,6.45,7v8.46C838.9,289.64,836,292.79,832.45,292.79Z"/><path class="fdf7bf03-c8a4-4596-8bf5-1e516db96eb4" d="M863.43,292.79h0a6.77,6.77,0,0,1-6.46-7v-8.46a6.77,6.77,0,0,1,6.46-7h0c3.56,0,6.45,3.15,6.45,7v8.46C869.88,289.64,867,292.79,863.43,292.79Z"/><path class="fdf7bf03-c8a4-4596-8bf5-1e516db96eb4" d="M895.05,292.79h0c-3.56,0-6.45-3.15-6.45-7v-8.46c0-3.89,2.89-7,6.45-7h0a6.77,6.77,0,0,1,6.46,7v8.46A6.77,6.77,0,0,1,895.05,292.79Z"/><path class="fdf7bf03-c8a4-4596-8bf5-1e516db96eb4" d="M925.39,292.79h0a6.77,6.77,0,0,1-6.46-7v-8.46a6.77,6.77,0,0,1,6.46-7h0c3.56,0,6.45,3.15,6.45,7v8.46C931.84,289.64,929,292.79,925.39,292.79Z"/><path class="fdf7bf03-c8a4-4596-8bf5-1e516db96eb4" d="M956.37,292.79h0a6.77,6.77,0,0,1-6.46-7v-8.46a6.77,6.77,0,0,1,6.46-7h0c3.56,0,6.45,3.15,6.45,7v8.46C962.82,289.64,959.93,292.79,956.37,292.79Z"/><path class="fdf7bf03-c8a4-4596-8bf5-1e516db96eb4" d="M986.7,292.79h0c-3.56,0-6.45-3.15-6.45-7v-8.46c0-3.89,2.89-7,6.45-7h0a6.77,6.77,0,0,1,6.46,7v8.46A6.77,6.77,0,0,1,986.7,292.79Z"/><path class="fdf7bf03-c8a4-4596-8bf5-1e516db96eb4" d="M1017.68,292.79h0c-3.56,0-6.45-3.15-6.45-7v-8.46c0-3.89,2.89-7,6.45-7h0a6.77,6.77,0,0,1,6.46,7v8.46A6.77,6.77,0,0,1,1017.68,292.79Z"/><path class="dc51c2ec-4de0-4e35-b0bd-9bb0a423fe15" d="M1036.4,157.6a9.57,9.57,0,0,1-9.41,9.15H968.36A9.57,9.57,0,0,1,959,157.6Z"/><path class="fdf7bf03-c8a4-4596-8bf5-1e516db96eb4" d="M1061.45,314.87H723.22c-.9,0-3.53-2.65-3.53-5.92h0a5.89,5.89,0,0,1,5.87-5.91h338.23a5.9,5.9,0,0,1,5.88,5.91h0C1069.67,312.22,1067,314.87,1061.45,314.87Z"/></g></g></svg>