<svg xmlns="http://www.w3.org/2000/svg" viewBox="0 0 300 271.07"><defs><style>.\35 e769390-a652-43d6-be30-32256ffbfdc5{fill:#fff;}</style></defs><g id="09995783-eb3b-4465-9d81-da968ca5bb62" data-name="Слой 2"><g id="adecdfba-63f9-4a4e-a1d1-24d71c723c8b" data-name="Слой 2"><path class="5e769390-a652-43d6-be30-32256ffbfdc5" d="M213.11,3.2,200.47,21.47A4,4,0,0,0,202,27.34a120.06,120.06,0,0,1,0,216.36l0,0a4,4,0,0,0-1.57,5.82l12.68,18.33a4,4,0,0,0,5.13,1.28,150.05,150.05,0,0,0,0-267.22A4,4,0,0,0,213.11,3.2ZM49.6,201.29A120.19,120.19,0,0,1,100.88,26a4,4,0,0,0,1.67-5.92L89.86,1.72a4,4,0,0,0-5-1.32,150.07,150.07,0,0,0,0,270.27,4,4,0,0,0,5-1.31L102.56,251a4,4,0,0,0-1.67-5.92l-.52-.23A120.27,120.27,0,0,1,49.6,201.29Z"/><path class="5e769390-a652-43d6-be30-32256ffbfdc5" d="M177.14,55.19h0a15.07,15.07,0,0,0,5.52,21.91,66,66,0,0,1,0,116.87,15.07,15.07,0,0,0-5.52,21.91h0a15,15,0,0,0,19.32,4.76,96,96,0,0,0,0-170.21A15,15,0,0,0,177.14,55.19ZM86,135.54A66.08,66.08,0,0,1,121.34,77.1a15.07,15.07,0,0,0,5.52-21.91h0a15,15,0,0,0-19.32-4.76,96,96,0,0,0,0,170.21,15,15,0,0,0,19.32-4.76h0A15.07,15.07,0,0,0,121.34,194,66.07,66.07,0,0,1,86,135.54Z"/><circle class="5e769390-a652-43d6-be30-32256ffbfdc5" cx="152" cy="135.54" r="44"/></g></g></svg>