<svg xmlns="http://www.w3.org/2000/svg" viewBox="0 0 1172.41 168.32"><defs><style>.\30 1a145f4-e38d-4ba5-a4a5-a656039b3071,.\32 7c2526a-2c77-458d-941f-e510862d85e0,.\36 f6bd9ac-6145-49d1-bcf4-7dff15329bfb,.\37 bd78260-45fb-403b-8820-76e5a7bdab03{fill:none;stroke-width:5px;}.\30 1a145f4-e38d-4ba5-a4a5-a656039b3071,.\32 7c2526a-2c77-458d-941f-e510862d85e0{stroke:#00457a;}.\30 1a145f4-e38d-4ba5-a4a5-a656039b3071,.\32 7c2526a-2c77-458d-941f-e510862d85e0,.\36 f6bd9ac-6145-49d1-bcf4-7dff15329bfb,.\37 bd78260-45fb-403b-8820-76e5a7bdab03,.\38 a17365e-0c29-4c31-9bd0-e8be791bd783{stroke-miterlimit:10;}.\31 a1b4096-8e4d-4437-9ec5-290fa3a2ba80{fill:#00457a;}.\38 46bbb15-2569-4a01-8179-1cfa357b379e,.\38 a17365e-0c29-4c31-9bd0-e8be791bd783,.e05a7564-ff58-4525-a880-8d77e7283659{fill:#007ac3;}.\30 4f0d73a-29e6-4d9a-8a10-3973f49fd030,.\30 d8a3e9c-1ec3-406a-b834-035ffc15559f,.\31 86ec55a-9566-4f88-b6b9-1592be246cea,.\35 3b6441f-109a-41de-995a-ccbe2ae3fe57,.\35 59f7514-4995-4b7a-885a-530186ebfc8f,.\36 770610e-1ee1-46bd-9b20-2aa2a94c8bea,.\38 46bbb15-2569-4a01-8179-1cfa357b379e,.\38 a17365e-0c29-4c31-9bd0-e8be791bd783,.\39 7276843-78da-47ca-b0c5-94e003bf23e7,.cb3606b1-c635-4c59-a36a-29e0b0046f6d,.cc67e912-4770-4800-9641-c2655cf4760f,.f61299ba-5caf-4bb1-8db9-3b1bb64ae40c{isolation:isolate;}.\35 59f7514-4995-4b7a-885a-530186ebfc8f,.\38 46bbb15-2569-4a01-8179-1cfa357b379e{font-size:73.33px;}.\35 59f7514-4995-4b7a-885a-530186ebfc8f{fill:#00447d;font-family:MicrosoftTaiLe-Bold, Microsoft Tai Le;}.\30 4f0d73a-29e6-4d9a-8a10-3973f49fd030,.\31 86ec55a-9566-4f88-b6b9-1592be246cea,.\35 59f7514-4995-4b7a-885a-530186ebfc8f,.\36 770610e-1ee1-46bd-9b20-2aa2a94c8bea,.\38 46bbb15-2569-4a01-8179-1cfa357b379e,.\39 7276843-78da-47ca-b0c5-94e003bf23e7{font-weight:700;}.\38 46bbb15-2569-4a01-8179-1cfa357b379e{font-family:MicrosoftNewTaiLue-Bold, Microsoft New Tai Lue;}.\38 a17365e-0c29-4c31-9bd0-e8be791bd783{font-size:26.66px;stroke:#007ac3;stroke-width:2px;font-family:ArialMT, Arial;}.\31 641df07-c4cd-402e-badb-de0e402853e4{fill:#f58220;}.\37 bd78260-45fb-403b-8820-76e5a7bdab03{stroke:#00599f;}.\35 3b6441f-109a-41de-995a-ccbe2ae3fe57,.f61299ba-5caf-4bb1-8db9-3b1bb64ae40c{font-size:70.96px;letter-spacing:-0.04em;}.\35 3b6441f-109a-41de-995a-ccbe2ae3fe57{fill:#ed1c24;}.\30 d8a3e9c-1ec3-406a-b834-035ffc15559f,.\35 3b6441f-109a-41de-995a-ccbe2ae3fe57,.cb3606b1-c635-4c59-a36a-29e0b0046f6d,.f61299ba-5caf-4bb1-8db9-3b1bb64ae40c{font-family:Consolas, Consolas;}.\30 d8a3e9c-1ec3-406a-b834-035ffc15559f,.cb3606b1-c635-4c59-a36a-29e0b0046f6d{font-size:63.43px;letter-spacing:-0.04em;}.\30 d8a3e9c-1ec3-406a-b834-035ffc15559f,.b7164700-590f-4687-b70f-9c08b5fd5e93{fill:#fff;}.\36 f6bd9ac-6145-49d1-bcf4-7dff15329bfb{stroke:#3699dc;}.\30 4f0d73a-29e6-4d9a-8a10-3973f49fd030,.\31 86ec55a-9566-4f88-b6b9-1592be246cea,.\36 770610e-1ee1-46bd-9b20-2aa2a94c8bea,.\39 7276843-78da-47ca-b0c5-94e003bf23e7{font-size:66.66px;font-family:TrebuchetMS-Bold, Trebuchet MS;}.\30 4f0d73a-29e6-4d9a-8a10-3973f49fd030,.\31 86ec55a-9566-4f88-b6b9-1592be246cea,.\39 7276843-78da-47ca-b0c5-94e003bf23e7{fill:#404040;}.\30 4f0d73a-29e6-4d9a-8a10-3973f49fd030{letter-spacing:-0.09em;}.\39 7276843-78da-47ca-b0c5-94e003bf23e7{letter-spacing:-0.15em;}.\31 86ec55a-9566-4f88-b6b9-1592be246cea{letter-spacing:-0.02em;}.\36 770610e-1ee1-46bd-9b20-2aa2a94c8bea,.a3b18874-5410-4d56-8653-ee93213b5ae6{fill:#3699dc;}.\30 1a145f4-e38d-4ba5-a4a5-a656039b3071{stroke-linecap:round;}</style></defs><title>Ресурс 2</title><g id="1847c7e8-7825-484f-b08e-d8ff3d87e558" data-name="Слой 2"><g id="122db03b-0427-4285-8010-51a274a209bb" data-name="Слой 1"><path class="27c2526a-2c77-458d-941f-e510862d85e0" d="M269.14,35.83v96.66a33.33,33.33,0,0,1-33.33,33.33h-200A33.31,33.31,0,0,1,2.5,132.49V35.83A33.33,33.33,0,0,1,35.83,2.5h200A33.33,33.33,0,0,1,269.14,35.83Z"/><path class="1a1b4096-8e4d-4437-9ec5-290fa3a2ba80" d="M122.49,102.49v40a3.33,3.33,0,0,1-3.33,3.33H5.83a2.78,2.78,0,0,1-.58-.06A33.17,33.17,0,0,1,2.5,132.49V99.16H119.15A3.33,3.33,0,0,1,122.49,102.49Z"/><rect class="e05a7564-ff58-4525-a880-8d77e7283659" x="135.82" y="99.16" width="102.09" height="46.66" rx="3.33" ry="3.33"/><g class="cc67e912-4770-4800-9641-c2655cf4760f"><text class="559f7514-4995-4b7a-885a-530186ebfc8f" transform="translate(4.5 75.83)">Pay</text><text class="846bbb15-2569-4a01-8179-1cfa357b379e" transform="translate(128.45 75.83)">Pal</text></g><text class="8a17365e-0c29-4c31-9bd0-e8be791bd783" transform="translate(232.28 37.76)">tm</text><rect class="1641df07-c4cd-402e-badb-de0e402853e4" x="627.45" y="92.49" width="214.98" height="47.76"/><rect class="7bd78260-45fb-403b-8820-76e5a7bdab03" x="602.45" y="2.5" width="266.65" height="163.32" rx="33.33" ry="33.33"/><g class="cc67e912-4770-4800-9641-c2655cf4760f"><text class="53b6441f-109a-41de-995a-ccbe2ae3fe57" transform="translate(612.52 77.29) scale(0.77 1)">Я</text><text class="f61299ba-5caf-4bb1-8db9-3b1bb64ae40c" transform="translate(640.6 77.29) scale(0.77 1)">ндекс</text><text class="cb3606b1-c635-4c59-a36a-29e0b0046f6d" transform="translate(612.52 128.96) scale(0.77 1)"><tspan xml:space="preserve">  </tspan></text><text class="0d8a3e9c-1ec3-406a-b834-035ffc15559f" transform="translate(662.51 128.96) scale(0.77 1)">деньги</text></g><path class="1641df07-c4cd-402e-badb-de0e402853e4" d="M832.2,12.17,793.07,33.6h0A10.73,10.73,0,0,0,789.74,41v35.1a5.76,5.76,0,0,0,.83,3c1,1.7,2.84,4.13,5.14,4.4,3.53.37,51.43,0,51.43,0a6,6,0,0,0,6-6c0-.12,0-.23,0-.35,0-6.16-.37-35.43-.4-37h0s-1.93-3.63-3.6-3.66H843.5a.27.27,0,0,0-.27.26s0,0,0,0V60.66h0a9.25,9.25,0,0,1-5.7,6.34c-4.7,1.6-33.87,9.79-35.27,10s-1.86.77-2.86-1.33S812.74,69,813,69h0l19.37-8.17a7.77,7.77,0,0,0,5.1-7.13V17.5S838.47,10.6,832.2,12.17Z"/><ellipse class="b7164700-590f-4687-b70f-9c08b5fd5e93" cx="823.22" cy="42.14" rx="5.03" ry="3.37" transform="translate(252.48 636.88) rotate(-49.11)"/><rect class="6f6bd9ac-6145-49d1-bcf4-7dff15329bfb" x="903.27" y="2.5" width="266.65" height="163.32" rx="33.33" ry="33.33"/><g class="cc67e912-4770-4800-9641-c2655cf4760f"><text class="04f0d73a-29e6-4d9a-8a10-3973f49fd030" transform="translate(922.16 78.96)">P</text><text class="97276843-78da-47ca-b0c5-94e003bf23e7" transform="translate(956.33 78.96)">A</text><text class="186ec55a-9566-4f88-b6b9-1592be246cea" transform="translate(992.59 78.96)">Y</text><text class="6770610e-1ee1-46bd-9b20-2aa2a94c8bea" transform="translate(1033.49 78.96)">EER</text></g><circle class="a3b18874-5410-4d56-8653-ee93213b5ae6" cx="1036.59" cy="124.29" r="33.76"/><path class="b7164700-590f-4687-b70f-9c08b5fd5e93" d="M1028.19,105.49h6.67v38.93h-6.67Zm3,16.67h11.1a3.67,3.67,0,0,0,2.06-.6,3.92,3.92,0,0,0,1.37-1.7,6,6,0,0,0,.5-2.53,6.27,6.27,0,0,0-.47-2.57,3.87,3.87,0,0,0-1.4-1.7,3.52,3.52,0,0,0-2.06-.6h-11.1v-7h10.93a11,11,0,0,1,5.7,1.47,10.15,10.15,0,0,1,3.83,4.2,15.06,15.06,0,0,1,0,12.53,10,10,0,0,1-3.83,4.17,10.94,10.94,0,0,1-5.7,1.46h-10.93Z"/><rect class="27c2526a-2c77-458d-941f-e510862d85e0" x="302.48" y="2.5" width="266.65" height="163.32" rx="33.33" ry="33.33"/><line class="27c2526a-2c77-458d-941f-e510862d85e0" x1="306.58" y1="19.17" x2="565.16" y2="19.17"/><line class="27c2526a-2c77-458d-941f-e510862d85e0" x1="302.48" y1="49.16" x2="569.12" y2="49.16"/><line class="27c2526a-2c77-458d-941f-e510862d85e0" x1="324.41" y1="108.89" x2="414.4" y2="108.89"/><line class="27c2526a-2c77-458d-941f-e510862d85e0" x1="324.14" y1="138.59" x2="414.13" y2="138.59"/><path class="01a145f4-e38d-4ba5-a4a5-a656039b3071" d="M525.79,137.49a17,17,0,0,1-7.16,1.57,15,15,0,0,1-2-30,13.35,13.35,0,0,1,2,0,17,17,0,0,1,7.16,1.57"/><path class="01a145f4-e38d-4ba5-a4a5-a656039b3071" d="M525.79,137.49a17.06,17.06,0,0,0,7.17,1.57,15,15,0,0,0,2-30,13.35,13.35,0,0,0-2,0,17.06,17.06,0,0,0-7.17,1.57"/><path class="1a1b4096-8e4d-4437-9ec5-290fa3a2ba80" d="M331.4,92.29,329.11,91a9.38,9.38,0,0,1-3.55-3.81,12.42,12.42,0,0,1-1.27-5.68v-8a12.59,12.59,0,0,1,1.27-5.69,9.41,9.41,0,0,1,3.55-3.8,10.77,10.77,0,0,1,9.9-.28,9.43,9.43,0,0,1,3.47,3,11.23,11.23,0,0,1,1.92,4.54h-4.09a6.08,6.08,0,0,0-5.84-4.66,5.68,5.68,0,0,0-3.11.86,5.92,5.92,0,0,0-2.08,2.41,8.13,8.13,0,0,0-.74,3.6v8.17a8.13,8.13,0,0,0,.74,3.6,5.64,5.64,0,0,0,7.68,2.7,4.92,4.92,0,0,0,2.09-1.6,5.72,5.72,0,0,0,1.26-2.49h4.09a11.23,11.23,0,0,1-1.92,4.54,9.79,9.79,0,0,1-8.18,4.09Z"/><path class="1a1b4096-8e4d-4437-9ec5-290fa3a2ba80" d="M348.65,62.94h4.09V92h-4.09Zm1.76,12.88h9.9a4.08,4.08,0,0,0,2.08-.53,3.78,3.78,0,0,0,1.39-1.6,5.92,5.92,0,0,0,0-4.74,4,4,0,0,0-1.39-1.59,3.81,3.81,0,0,0-2.08-.54h-9.9V62.94H360a9.45,9.45,0,0,1,4.46,1,7.32,7.32,0,0,1,2.94,2.95,10.07,10.07,0,0,1,0,8.83,7.59,7.59,0,0,1-3,2.94,9.06,9.06,0,0,1-4.42,1h-9.73Zm7.89,3,4.09-.9L369.79,92H365Z"/><path class="1a1b4096-8e4d-4437-9ec5-290fa3a2ba80" d="M373.76,62.94h4.09V92h-4.09Zm2,0H392.4v3.88H375.72Zm0,12.71h14.47V79.5H375.72Zm0,12.47H392.4V92H375.72Z"/><path class="1a1b4096-8e4d-4437-9ec5-290fa3a2ba80" d="M396.82,62.94h4.08V92h-4.08Zm2.78,25.18h6.54a7,7,0,0,0,5-1.67,6.14,6.14,0,0,0,1.75-4.7V73.41a6.15,6.15,0,0,0-1.75-4.71,7.06,7.06,0,0,0-5-1.67H399.6V63.14H406a13.47,13.47,0,0,1,6,1.23,8.68,8.68,0,0,1,3.81,3.56,11.49,11.49,0,0,1,1.06,5.48v8.17a11.5,11.5,0,0,1-1.27,5.64,8.66,8.66,0,0,1-3.8,3.56,13.49,13.49,0,0,1-6,1.19h-6.42Z"/><path class="1a1b4096-8e4d-4437-9ec5-290fa3a2ba80" d="M426,92h-4.09v-29H426Z"/><path class="1a1b4096-8e4d-4437-9ec5-290fa3a2ba80" d="M427.6,62.94H448v3.88H427.6Zm8.18,2.41h4.09V92h-4.09Z"/><path class="1a1b4096-8e4d-4437-9ec5-290fa3a2ba80" d="M461.66,92.29,459.37,91a9.47,9.47,0,0,1-3.56-3.81,12.54,12.54,0,0,1-1.23-5.68v-8a12.85,12.85,0,0,1,1.23-5.69,9.51,9.51,0,0,1,3.56-3.8,10.76,10.76,0,0,1,9.89-.28,10,10,0,0,1,3.52,3,11.42,11.42,0,0,1,1.88,4.54h-4.09a6.64,6.64,0,0,0-3.35-4.09,5.58,5.58,0,0,0-7.65,2.7,8.26,8.26,0,0,0-.73,3.6v8.17a8.26,8.26,0,0,0,.73,3.6,5.85,5.85,0,0,0,2.05,2.41,5.9,5.9,0,0,0,5.6.29,5,5,0,0,0,2.08-1.6,5.74,5.74,0,0,0,1.27-2.49h4.09a11.37,11.37,0,0,1-1.92,4.54,9.59,9.59,0,0,1-3.52,3,10.07,10.07,0,0,1-4.54,1.07Z"/><path class="1a1b4096-8e4d-4437-9ec5-290fa3a2ba80" d="M486.23,62.94h3.43l10.71,29H496l-8.18-23.39L479.65,92h-4.38Zm-5.81,18.64h15.29v4.09H480.42Z"/><path class="1a1b4096-8e4d-4437-9ec5-290fa3a2ba80" d="M503.11,62.94h4.09V92h-4.09Zm1.76,12.88h9.9a4.08,4.08,0,0,0,2.08-.53,3.78,3.78,0,0,0,1.39-1.6,6.47,6.47,0,0,0,0-4.74,4.1,4.1,0,0,0-1.39-1.59,3.81,3.81,0,0,0-2.08-.54h-9.9V62.94h9.73a9.45,9.45,0,0,1,4.46,1A7.32,7.32,0,0,1,522,66.91a10.07,10.07,0,0,1,0,8.83,7.59,7.59,0,0,1-3,2.94,9,9,0,0,1-4.42,1h-9.73Zm7.89,3,4.09-.9L524.25,92h-4.78Z"/><path class="1a1b4096-8e4d-4437-9ec5-290fa3a2ba80" d="M528.34,62.94h4.09V92h-4.09Zm2.74,25.18h6.58a7,7,0,0,0,5-1.67,6.21,6.21,0,0,0,1.8-4.87V73.41a6.22,6.22,0,0,0-1.8-4.71,7,7,0,0,0-5-1.67h-6.58V63.14h6.46a13.53,13.53,0,0,1,6,1.23,8.57,8.57,0,0,1,3.76,3.56,11.53,11.53,0,0,1,1.31,5.64v8.18a11.53,11.53,0,0,1-1.31,5.64,8.5,8.5,0,0,1-3.8,3.56,13.37,13.37,0,0,1-6,1.18h-6.42Z"/></g></g></svg>