<svg xmlns="http://www.w3.org/2000/svg" width="781.53" height="780" viewBox="0 0 781.53 780"><defs><style>.d83535c7-1262-4bfe-9922-ce56a147c514{fill:#ffca28;}.\34 d28ffba-bdd6-405a-9f2c-203aa8f3ca44,.de25f404-e488-4d6b-a3ae-73c1eeda0e36{fill:#263238;}.\34 8633373-768c-42a8-bafe-a657aea189db{fill:#e53935;}.\38 e9348a5-aa02-45ff-8047-182b3cdd538f,.\39 b500ee1-5a13-46b3-b94d-724a33898be5{fill:#fff;}.\31 d55f229-b503-48ac-89b7-e31ec69aba7d{fill:#00b0ff;}.b3994507-f7f8-4246-b93f-9d02fc87e0ac{fill:#0277bd;}.\36 d13968a-03d7-42f2-87d3-872aa02477e0{fill:#028cde;}.\31 4288bdd-dc6d-4f3d-87ee-28545dccdc56,.\32 e8db9b9-da35-436b-97f4-bb4a4c627464{fill:#546e7a;}.fb1821e5-f690-48a9-b904-4fd9347ecfa8{fill:#37474f;}.\31 bf86bb8-05a3-41de-9f11-45e470322988{fill:#b71c1c;}.\39 3ddd981-8874-449b-baf5-cdf2a098b139{fill:#940707;}.\30 2568e48-ae0d-4b62-817d-aee8ccf94e06,.\31 4288bdd-dc6d-4f3d-87ee-28545dccdc56,.\34 d28ffba-bdd6-405a-9f2c-203aa8f3ca44,.\39 3ddd981-8874-449b-baf5-cdf2a098b139,.\39 b500ee1-5a13-46b3-b94d-724a33898be5,.e75bebbf-d6cb-4889-b244-7d6c8e831ab1,.f323972c-a857-46e8-8b3f-27129e528001{fill-rule:evenodd;}.e790a169-2df9-4ffc-8789-62fc389491e9{fill:#29b6f6;}.\36 fae3685-49d3-4b8d-9f30-63ceda310a48{fill:#efefef;}.d91c1d1f-ad31-476a-a260-df14eccc3c4a{fill:#fdf9f9;}.f323972c-a857-46e8-8b3f-27129e528001{fill:#027ec9;}.\30 2568e48-ae0d-4b62-817d-aee8ccf94e06{fill:#0295ed;}.e75bebbf-d6cb-4889-b244-7d6c8e831ab1{fill:#02639e;}.\38 d47351b-4f16-4909-adb6-61d7804a0a67{fill:#4fb340;}.\37 45d016e-391b-4839-9b4a-ac5bf1468a66{fill:#74e063;}.\33 2b84f90-c2c8-45c2-b254-bc3f8f543549{fill:#414141;}.e0c2e8b7-dfa2-492a-abc1-2082a055765b{fill:#025687;}.\37 879e964-97eb-4d0c-bff7-2865cab6e92e{fill:#ffe600;}.e8451c66-2924-4a75-a0df-7750f44bd7c2{fill:#253237;}.\31 90e24c4-cadf-4010-bb9b-2f6871e8fd05{fill:#6f8c99;}.\36 64c9d3f-1173-43e4-beeb-593902467743{fill:#ffb300;}.\35 e2afcac-0a6f-4492-93a3-73fa0cd3095f{fill:#ecf0f0;}.a70d3ad3-baed-48d1-98f5-1dac7f888239{fill:#e3a623;}</style></defs><title>Ресурс 1</title><g id="f98e0cef-40b0-4203-842c-33add4565c7e" data-name="Слой 2"><g id="9105bae1-d4eb-45b8-ae0f-5f7ccaaba4bd" data-name="Emojies"><circle class="d83535c7-1262-4bfe-9922-ce56a147c514" cx="741.53" cy="740" r="40"/><path class="de25f404-e488-4d6b-a3ae-73c1eeda0e36" d="M756.86,740.53a6.67,6.67,0,1,1-6.66,6.67A6.67,6.67,0,0,1,756.86,740.53Z"/><circle class="de25f404-e488-4d6b-a3ae-73c1eeda0e36" cx="726.2" cy="747.2" r="6.67" transform="translate(-109.07 1370.1) rotate(-82.53)"/><path class="48633373-768c-42a8-bafe-a657aea189db" d="M724.73,728.93c10.8-7.6,22.8-7.46,33.6,0,1.33.94,2.4-.66,1.6-2.13a21.78,21.78,0,0,0-36.8,0c-.8,1.47.27,3.07,1.6,2.13"/><circle class="d83535c7-1262-4bfe-9922-ce56a147c514" cx="601.53" cy="740" r="40"/><path class="8e9348a5-aa02-45ff-8047-182b3cdd538f" d="M586.05,719.45a9.6,9.6,0,1,0,9.6,9.6A9.6,9.6,0,0,0,586.05,719.45Z"/><path class="de25f404-e488-4d6b-a3ae-73c1eeda0e36" d="M586.05,724.25a4.8,4.8,0,1,0,4.8,4.8A4.79,4.79,0,0,0,586.05,724.25Z"/><path class="8e9348a5-aa02-45ff-8047-182b3cdd538f" d="M616.88,719.45a9.6,9.6,0,1,0,9.6,9.6A9.6,9.6,0,0,0,616.88,719.45Z"/><path class="de25f404-e488-4d6b-a3ae-73c1eeda0e36" d="M616.88,724.25a4.8,4.8,0,1,0,4.8,4.8A4.8,4.8,0,0,0,616.88,724.25Z"/><path class="48633373-768c-42a8-bafe-a657aea189db" d="M601.53,763.24A24.63,24.63,0,0,1,579.28,749a1.75,1.75,0,1,1,3.17-1.47,21,21,0,0,0,38.16,0,1.75,1.75,0,1,1,3.17,1.48,24.63,24.63,0,0,1-22.25,14.23Z"/><path class="d83535c7-1262-4bfe-9922-ce56a147c514" d="M501.53,740a40,40,0,1,1-40-40,40,40,0,0,1,40,40"/><path class="48633373-768c-42a8-bafe-a657aea189db" d="M461.53,770a19.81,19.81,0,0,1-20-18h40A19.82,19.82,0,0,1,461.53,770Z"/><path class="8e9348a5-aa02-45ff-8047-182b3cdd538f" d="M433,730.08a11.2,11.2,0,1,1,11.21,11.2A11.21,11.21,0,0,1,433,730.08"/><path class="1d55f229-b503-48ac-89b7-e31ec69aba7d" d="M444.24,735.78a3.82,3.82,0,1,1,3.81,3.82,3.81,3.81,0,0,1-3.81-3.82"/><path class="8e9348a5-aa02-45ff-8047-182b3cdd538f" d="M489.72,730.08a11.2,11.2,0,1,0-11.2,11.2,11.19,11.19,0,0,0,11.2-11.2"/><path class="1d55f229-b503-48ac-89b7-e31ec69aba7d" d="M478.53,735.78a3.82,3.82,0,1,0-3.82,3.82,3.82,3.82,0,0,0,3.82-3.82"/><path class="de25f404-e488-4d6b-a3ae-73c1eeda0e36" d="M440.64,748.61A17.61,17.61,0,1,1,458.25,731a17.63,17.63,0,0,1-17.61,17.61Zm0-32.13A14.53,14.53,0,1,0,455.17,731a14.53,14.53,0,0,0-14.53-14.52Z"/><path class="de25f404-e488-4d6b-a3ae-73c1eeda0e36" d="M482.42,748.61A17.61,17.61,0,1,1,500,731a17.63,17.63,0,0,1-17.61,17.61Zm0-32.13A14.53,14.53,0,1,0,496.94,731a14.54,14.54,0,0,0-14.52-14.52Z"/><path class="de25f404-e488-4d6b-a3ae-73c1eeda0e36" d="M465.56,730.26h-8a1.55,1.55,0,1,1,0-3.09h8a1.55,1.55,0,1,1,0,3.09Z"/><path class="d83535c7-1262-4bfe-9922-ce56a147c514" d="M361.53,740a40,40,0,1,1-40-40,40,40,0,0,1,40,40"/><path class="48633373-768c-42a8-bafe-a657aea189db" d="M332.11,764.15l-10.58-12.69L311,764.15l-12-14.39a1.84,1.84,0,0,1,2.83-2.36l9.16,11,10.58-12.7,10.58,12.7,9.17-11a1.84,1.84,0,0,1,2.82,2.36l-12,14.39Z"/><path class="de25f404-e488-4d6b-a3ae-73c1eeda0e36" d="M300.42,736.24a1.88,1.88,0,0,1-1.06-3.44l10-6.76-10-6.75a1.88,1.88,0,1,1,2.11-3.12l12.28,8.31a1.9,1.9,0,0,1,.83,1.56,1.87,1.87,0,0,1-.83,1.56l-12.28,8.32a1.85,1.85,0,0,1-1.05.32Z"/><path class="de25f404-e488-4d6b-a3ae-73c1eeda0e36" d="M342.65,736.24a1.88,1.88,0,0,1-1.06-.32l-12.28-8.32a1.87,1.87,0,0,1,0-3.11l12.28-8.32a1.88,1.88,0,1,1,2.11,3.12l-10,6.75,10,6.76a1.88,1.88,0,0,1-1.05,3.44Z"/><path class="d83535c7-1262-4bfe-9922-ce56a147c514" d="M221.53,740a40,40,0,1,1-40-40A40,40,0,0,1,221.53,740Z"/><path class="de25f404-e488-4d6b-a3ae-73c1eeda0e36" d="M190,752.5h0a5.48,5.48,0,0,0-8.5.44,5.48,5.48,0,0,0-8.5-.44h0c-4.23,4.22-10.87,7.13-17.1,2.63,0,7,15.25,14.87,24.22,7.94l.11-.08.17-.12h0a5.61,5.61,0,0,0,1.11-1.12,5.66,5.66,0,0,0,1.12,1.12h0a1,1,0,0,0,.17.12l.11.08c9,6.93,24.21-1,24.21-7.94C200.91,759.63,194.26,756.72,190,752.5Z"/><path class="b3994507-f7f8-4246-b93f-9d02fc87e0ac" d="M158.91,719.32c12.65,0,22.14,1.76,15.81,19.35-2.62,7.3-6.32,8.79-15.81,8.79-6.33,0-10.31-.55-13.47-12.31S149.42,719.32,158.91,719.32Z"/><path class="de25f404-e488-4d6b-a3ae-73c1eeda0e36" d="M158.91,749.06c-6.88,0-11.64-.94-15-13.5-1.44-5.36-1-9.65,1.41-12.75,2.55-3.33,7.26-5.09,13.61-5.09,6.77,0,14.29.4,17.64,5.18,2.47,3.5,2.36,8.84-.32,16.31-3,8.43-7.79,9.85-17.32,9.85Zm0-28.14c-3.71,0-8.64.66-11.07,3.84-1.74,2.27-2,5.62-.86,10,3,11.13,6.36,11.13,11.93,11.13,9.37,0,12-1.44,14.31-7.73s2.51-10.84.72-13.39c-2.23-3.17-7.62-3.82-15-3.82Z"/><path class="b3994507-f7f8-4246-b93f-9d02fc87e0ac" d="M204.16,719.32c-12.65,0-22.14,1.76-15.82,19.35,2.63,7.3,6.33,8.79,15.82,8.79,6.32,0,10.31-.55,13.47-12.31S213.64,719.32,204.16,719.32Z"/><path class="de25f404-e488-4d6b-a3ae-73c1eeda0e36" d="M204.16,749.06c-9.53,0-14.29-1.42-17.33-9.85-2.68-7.47-2.79-12.8-.32-16.31,3.36-4.78,10.87-5.18,17.65-5.18,6.34,0,11.05,1.76,13.61,5.09,2.37,3.1,2.85,7.39,1.4,12.75-3.37,12.56-8.13,13.5-15,13.5Zm0-28.14c-7.41,0-12.8.65-15,3.82-1.8,2.56-1.56,7.06.72,13.39s4.93,7.73,14.31,7.73c5.57,0,8.93,0,11.92-11.13,1.17-4.35.88-7.7-.86-10-2.43-3.18-7.36-3.84-11.06-3.84Z"/><path class="de25f404-e488-4d6b-a3ae-73c1eeda0e36" d="M181.86,724.66a45.86,45.86,0,0,1-8.45-.86,1.6,1.6,0,0,1,.59-3.15,35.6,35.6,0,0,0,15,0,1.6,1.6,0,0,1,.68,3.13,35.93,35.93,0,0,1-7.83.87Z"/><path class="de25f404-e488-4d6b-a3ae-73c1eeda0e36" d="M187.31,736.75a1.59,1.59,0,0,1-1.52-1.12c-1.1-3.46-1.82-4.16-4.26-4.16s-3.15.78-4.16,4.14a1.6,1.6,0,0,1-3.07-.92c1-3.25,2.35-6.42,7.23-6.42s6.2,2.9,7.31,6.39a1.6,1.6,0,0,1-1,2,1.4,1.4,0,0,1-.49.08Z"/><path class="6d13968a-03d7-42f2-87d3-872aa02477e0" d="M153.13,735.2a1.62,1.62,0,0,1-1.16-.5,1.6,1.6,0,0,1,.05-2.26l5.2-5a1.6,1.6,0,0,1,2.21,2.31l-5.2,5a1.57,1.57,0,0,1-1.1.45Z"/><path class="6d13968a-03d7-42f2-87d3-872aa02477e0" d="M160.06,738.51a1.6,1.6,0,0,1-1.11-2.75l8.67-8.29a1.6,1.6,0,0,1,2.21,2.31l-8.66,8.29a1.6,1.6,0,0,1-1.11.44Z"/><path class="6d13968a-03d7-42f2-87d3-872aa02477e0" d="M194.34,735.2a1.6,1.6,0,0,1-1.11-2.76l5.2-5a1.6,1.6,0,1,1,2.22,2.31l-5.2,5a1.59,1.59,0,0,1-1.11.45Z"/><path class="6d13968a-03d7-42f2-87d3-872aa02477e0" d="M201.27,738.51a1.57,1.57,0,0,1-1.15-.49,1.59,1.59,0,0,1,0-2.26l8.66-8.29a1.6,1.6,0,1,1,2.21,2.31l-8.66,8.29a1.58,1.58,0,0,1-1.11.44Z"/><circle class="d83535c7-1262-4bfe-9922-ce56a147c514" cx="41.53" cy="740" r="40"/><path class="de25f404-e488-4d6b-a3ae-73c1eeda0e36" d="M19.26,736a1.73,1.73,0,0,1-1-3.16L28.37,726l-10.08-6.84a1.73,1.73,0,0,1,1.93-2.86l12.19,8.27a1.73,1.73,0,0,1,0,2.86L20.22,735.7a1.7,1.7,0,0,1-1,.3Z"/><path class="de25f404-e488-4d6b-a3ae-73c1eeda0e36" d="M63.8,736a1.72,1.72,0,0,1-1-.3l-12.19-8.27a1.74,1.74,0,0,1,0-2.86l12.19-8.27a1.73,1.73,0,0,1,1.93,2.86L54.7,726l10.07,6.84a1.73,1.73,0,0,1-1,3.16Z"/><path class="48633373-768c-42a8-bafe-a657aea189db" d="M65.12,753.46H17.94a25.47,25.47,0,0,1-1-2.34,26.79,26.79,0,0,0,24.61,17.12,26.79,26.79,0,0,0,24.61-17.11C65.84,751.92,65.5,752.69,65.12,753.46Z"/><path class="8e9348a5-aa02-45ff-8047-182b3cdd538f" d="M65.12,753.46c.38-.77.72-1.54,1-2.33v0a22.56,22.56,0,0,0,.71-2.25l.06-.2c.17-.69.29-1.39.4-2.08,0-.13,0-.26.06-.39a17.82,17.82,0,0,0,.16-2.43h-52a19.57,19.57,0,0,0,.16,2.43c0,.13.05.26.07.38.1.7.22,1.4.39,2.09l.06.2a22.56,22.56,0,0,0,.71,2.25h0a25.47,25.47,0,0,0,1,2.34Z"/><circle class="d83535c7-1262-4bfe-9922-ce56a147c514" cx="741.53" cy="600" r="40"/><path class="8e9348a5-aa02-45ff-8047-182b3cdd538f" d="M735.64,589.05a9.6,9.6,0,1,1-9.6-9.6,9.6,9.6,0,0,1,9.6,9.6"/><path class="b3994507-f7f8-4246-b93f-9d02fc87e0ac" d="M730.84,589.05a4.8,4.8,0,1,1-4.8-4.8,4.79,4.79,0,0,1,4.8,4.8"/><path class="de25f404-e488-4d6b-a3ae-73c1eeda0e36" d="M751.63,607.43h0a6.51,6.51,0,0,0-10.09.52,6.51,6.51,0,0,0-10.09-.52h0c-5,5-12.91,8.46-20.3,3.12,0,8.3,18.11,17.66,28.75,9.43l.14-.09a1.43,1.43,0,0,1,.2-.14v0a6.66,6.66,0,0,0,1.32-1.33,6.45,6.45,0,0,0,1.33,1.33l0,0c.07,0,.14.08.21.14l.12.09c10.65,8.23,28.76-1.13,28.76-9.43C764.53,615.89,756.65,612.44,751.63,607.43Z"/><path class="2e8db9b9-da35-436b-97f4-bb4a4c627464" d="M747.67,589.57a11.63,11.63,0,1,0,11.63-11.63A11.63,11.63,0,0,0,747.67,589.57Z"/><path class="de25f404-e488-4d6b-a3ae-73c1eeda0e36" d="M759.3,602.79a13.23,13.23,0,1,1,13.22-13.22,13.24,13.24,0,0,1-13.22,13.22Zm0-23.25a10,10,0,1,0,10,10,10,10,0,0,0-10-10Z"/><path class="de25f404-e488-4d6b-a3ae-73c1eeda0e36" d="M776.45,612.26a1.6,1.6,0,0,1-1.6-1.6v-22.1a1.6,1.6,0,1,1,3.2,0v22.1a1.6,1.6,0,0,1-1.6,1.6Z"/><path class="de25f404-e488-4d6b-a3ae-73c1eeda0e36" d="M776.45,590.16h-3.78a1.6,1.6,0,1,1,0-3.2h3.78a1.6,1.6,0,0,1,0,3.2Z"/><path class="fb1821e5-f690-48a9-b904-4fd9347ecfa8" d="M761.33,591.44h-4.07a1.88,1.88,0,0,1,0-3.75h4.07a1.88,1.88,0,1,1,0,3.75Z"/><circle class="d83535c7-1262-4bfe-9922-ce56a147c514" cx="601.53" cy="600" r="40"/><path class="1bf86bb8-05a3-41de-9f11-45e470322988" d="M601.53,599.53a22.52,22.52,0,0,0-22.4,22.64h44.8a22.52,22.52,0,0,0-22.4-22.64"/><path class="48633373-768c-42a8-bafe-a657aea189db" d="M579.13,622.17c0-5.69,10-10.3,22.4-10.3s22.4,4.61,22.4,10.3"/><path class="de25f404-e488-4d6b-a3ae-73c1eeda0e36" d="M593.87,588.5a1.66,1.66,0,0,1-1.66-1.66,5.68,5.68,0,1,0-11.36,0,1.66,1.66,0,1,1-3.32,0,9,9,0,1,1,18,0,1.66,1.66,0,0,1-1.66,1.66Z"/><path class="de25f404-e488-4d6b-a3ae-73c1eeda0e36" d="M623.87,588.5a1.66,1.66,0,0,1-1.66-1.66,5.68,5.68,0,1,0-11.36,0,1.66,1.66,0,1,1-3.32,0,9,9,0,1,1,18,0,1.66,1.66,0,0,1-1.66,1.66Z"/><circle class="d83535c7-1262-4bfe-9922-ce56a147c514" cx="461.53" cy="600" r="40"/><path class="2e8db9b9-da35-436b-97f4-bb4a4c627464" d="M455.42,596.3c0,3.73-2.23,7.92-6,7.92H433.81c-3.38,0-6.9-3.9-6.9-7.27V588.8c0-3.38,3.52-4.95,6.9-4.95h21.61Z"/><path class="de25f404-e488-4d6b-a3ae-73c1eeda0e36" d="M449.45,606.09H433.81c-4.35,0-8.78-4.61-8.78-9.14V588.8c0-4,3.61-6.82,8.78-6.82h21.61a1.87,1.87,0,0,1,1.88,1.87V596.3c0,4.71-3,9.79-7.85,9.79Zm-15.64-20.37c-1.74,0-5,.65-5,3.08V597c0,2.42,2.77,5.4,5,5.4h15.64c2.45,0,4.1-3.13,4.1-6.05V585.72Z"/><path class="2e8db9b9-da35-436b-97f4-bb4a4c627464" d="M467.64,596.3c0,3.73,3.82,7.92,7.56,7.92h15.64c3.38,0,5.32-3.9,5.32-7.27V588.8c0-3.38-1.94-4.95-5.32-4.95h-23.2Z"/><path class="de25f404-e488-4d6b-a3ae-73c1eeda0e36" d="M490.84,606.09H475.2c-4.67,0-9.43-4.94-9.43-9.79V583.85a1.87,1.87,0,0,1,1.87-1.87h23.2c4.5,0,7.19,2.55,7.19,6.82V597c0,4.49-2.69,9.14-7.19,9.14Zm-21.32-20.37V596.3c0,2.77,3.08,6.05,5.68,6.05h15.64c2,0,3.44-2.85,3.44-5.4V588.8c0-1.85-.58-3.08-3.44-3.08Z"/><path class="de25f404-e488-4d6b-a3ae-73c1eeda0e36" d="M465.61,589.8h-8.15a1.88,1.88,0,1,1,0-3.75h8.15a1.88,1.88,0,0,1,0,3.75Z"/><path class="fb1821e5-f690-48a9-b904-4fd9347ecfa8" d="M445.35,596.07h-4.07a1.88,1.88,0,0,1,0-3.75h4.07a1.88,1.88,0,1,1,0,3.75Z"/><path class="fb1821e5-f690-48a9-b904-4fd9347ecfa8" d="M482,596.07h-4.08a1.88,1.88,0,0,1,0-3.75H482a1.88,1.88,0,0,1,0,3.75Z"/><path class="48633373-768c-42a8-bafe-a657aea189db" d="M461.53,625.68A22,22,0,0,1,441.67,613a1.51,1.51,0,1,1,2.75-1.27,18.85,18.85,0,0,0,34.22,0,1.51,1.51,0,1,1,2.75,1.27,22,22,0,0,1-19.86,12.7Z"/><circle class="48633373-768c-42a8-bafe-a657aea189db" cx="321.53" cy="600" r="40"/><path class="1bf86bb8-05a3-41de-9f11-45e470322988" d="M303,569.82c-6.79-3.27-11.15-9.82-11.15-9.82-1.82,17.46,5.21,21.7,9.33,21.82,5.34,0,9.58-8.24,1.82-12"/><path class="1bf86bb8-05a3-41de-9f11-45e470322988" d="M340.08,569.82c6.79-3.27,11.16-9.82,11.16-9.82,1.82,17.46-5.22,21.7-9.34,21.82-5.33,0-9.58-8.24-1.82-12"/><path class="93ddd981-8874-449b-baf5-cdf2a098b139" d="M321.53,625.66c-11.74,0-19.47-6.23-21.42-12.93,4.66,4.94,12.52,8.18,21.42,8.18s16.76-3.24,21.43-8.18c-2,6.7-9.69,12.93-21.43,12.93Z"/><path class="4d28ffba-bdd6-405a-9f2c-203aa8f3ca44" d="M286.25,587.23l.08,4.73h1.2c.55,0,.55,0,.63.51a36.1,36.1,0,0,0,3.15,10c4.47,8.4,19.36,9.26,24.62,1.26a33.24,33.24,0,0,0,3.52-8.28h4.16a33.24,33.24,0,0,0,3.52,8.28c5.26,8,20.16,7.14,24.62-1.26a36.1,36.1,0,0,0,3.15-10c.09-.51.08-.51.64-.51h1.19l.08-4.73c-9.18-.23-23.81-1.63-31.62,3.32h-7.31c-7.81-4.95-22.45-3.55-31.63-3.32Z"/><path class="14288bdd-dc6d-4f3d-87ee-28545dccdc56" d="M293.31,595.19c6.05-.41,12.11-.86,18.16-1.23,1.8-.11,1.77-1.66.16-2.05-4.73-1.14-16.86-4-19.62,1.06-.88,1.62,0,2.3,1.3,2.22Z"/><path class="14288bdd-dc6d-4f3d-87ee-28545dccdc56" d="M330.35,595.19c6-.41,12.11-.86,18.16-1.23,1.8-.11,1.76-1.66.16-2.05-4.73-1.14-16.86-4-19.62,1.06-.89,1.62,0,2.3,1.3,2.22Z"/><path class="9b500ee1-5a13-46b3-b94d-724a33898be5" d="M308.19,626.17l1.61-4.94.68-2.1a28.15,28.15,0,0,1-5.38-2.47l1.48,4.57,1.61,4.94Z"/><path class="9b500ee1-5a13-46b3-b94d-724a33898be5" d="M334.87,626.17l1.61-4.94,1.49-4.57a28.24,28.24,0,0,1-5.39,2.47l.68,2.1,1.61,4.94Z"/><path class="d83535c7-1262-4bfe-9922-ce56a147c514" d="M221.53,600a40,40,0,1,1-40-40,40,40,0,0,1,40,40"/><path class="de25f404-e488-4d6b-a3ae-73c1eeda0e36" d="M158.13,595.1a1.61,1.61,0,0,1-1.13-2.74l16.18-16.18a1.61,1.61,0,0,1,2.27,2.27l-16.18,16.18a1.64,1.64,0,0,1-1.14.47Z"/><path class="de25f404-e488-4d6b-a3ae-73c1eeda0e36" d="M174.32,595.1a1.64,1.64,0,0,1-1.14-.47L157,578.45a1.61,1.61,0,0,1,2.27-2.27l16.18,16.19a1.6,1.6,0,0,1-1.13,2.73Z"/><path class="de25f404-e488-4d6b-a3ae-73c1eeda0e36" d="M188.75,595.1a1.64,1.64,0,0,1-1.14-.47,1.62,1.62,0,0,1,0-2.27l16.19-16.18a1.6,1.6,0,0,1,2.26,2.27l-16.18,16.18a1.6,1.6,0,0,1-1.13.47Z"/><path class="de25f404-e488-4d6b-a3ae-73c1eeda0e36" d="M204.93,595.1a1.6,1.6,0,0,1-1.13-.47l-16.19-16.18a1.61,1.61,0,0,1,2.27-2.27l16.18,16.18a1.61,1.61,0,0,1-1.13,2.74Z"/><path class="48633373-768c-42a8-bafe-a657aea189db" d="M190.13,611.48H172.94a9.13,9.13,0,0,0-.7,3.52,9.29,9.29,0,1,0,17.89-3.52Z"/><path class="8e9348a5-aa02-45ff-8047-182b3cdd538f" d="M190.12,611.48a8.31,8.31,0,0,0-.57-1.16l-.09-.14a9.59,9.59,0,0,0-1.57-1.95l-.16-.14a8.9,8.9,0,0,0-1-.76h0a9.2,9.2,0,0,0-1.06-.62l-.24-.11a8.44,8.44,0,0,0-1.12-.45h0a9.67,9.67,0,0,0-1.21-.28l-.3-.05a9,9,0,0,0-2.54,0l-.3.05a9.67,9.67,0,0,0-1.21.28h0a8.44,8.44,0,0,0-1.12.45l-.24.11a10.13,10.13,0,0,0-1.06.62h0a8.9,8.9,0,0,0-1,.76l-.15.14a9.31,9.31,0,0,0-1.58,1.95l-.09.14a9.59,9.59,0,0,0-.57,1.16h17.18Z"/><circle class="d83535c7-1262-4bfe-9922-ce56a147c514" cx="41.53" cy="600" r="40"/><path class="de25f404-e488-4d6b-a3ae-73c1eeda0e36" d="M27.79,595a10.27,10.27,0,0,1-10.26-10.25,1.67,1.67,0,1,1,3.33,0,6.93,6.93,0,0,0,13.85,0,1.67,1.67,0,1,1,3.33,0A10.26,10.26,0,0,1,27.79,595Z"/><path class="de25f404-e488-4d6b-a3ae-73c1eeda0e36" d="M55.27,595A10.26,10.26,0,0,1,45,584.71a1.67,1.67,0,1,1,3.33,0,6.93,6.93,0,0,0,13.85,0,1.67,1.67,0,1,1,3.33,0A10.27,10.27,0,0,1,55.27,595Z"/><path class="48633373-768c-42a8-bafe-a657aea189db" d="M53.24,617H29.82a1.74,1.74,0,1,1,0-3.48H53.24a1.74,1.74,0,0,1,0,3.48Z"/><path class="e790a169-2df9-4ffc-8789-62fc389491e9" d="M60.23,639.2H51a1.6,1.6,0,0,1-1.28-2.56l8-10.64H50.33a1.6,1.6,0,1,1,0-3.2H60.86a1.6,1.6,0,0,1,1.28,2.56l-8,10.64h6.07a1.6,1.6,0,0,1,0,3.2Z"/><path class="e790a169-2df9-4ffc-8789-62fc389491e9" d="M76.73,639.2H67a1.59,1.59,0,0,1-1.45-.93,1.62,1.62,0,0,1,.23-1.71l6.17-7.26H66.83a1.6,1.6,0,0,1,0-3.2H75.4a1.59,1.59,0,0,1,1.45.93,1.62,1.62,0,0,1-.23,1.71L70.45,636h6.28a1.6,1.6,0,0,1,0,3.2Z"/><circle class="d83535c7-1262-4bfe-9922-ce56a147c514" cx="741.53" cy="460" r="40"/><path class="48633373-768c-42a8-bafe-a657aea189db" d="M754,473.25a12.5,12.5,0,1,1-12.5-12.5A12.5,12.5,0,0,1,754,473.25Z"/><path class="8e9348a5-aa02-45ff-8047-182b3cdd538f" d="M745.53,444.25a10,10,0,1,0,10-10A10,10,0,0,0,745.53,444.25Z"/><path class="de25f404-e488-4d6b-a3ae-73c1eeda0e36" d="M750.53,444.25a5,5,0,1,0,5-5A5,5,0,0,0,750.53,444.25Z"/><path class="8e9348a5-aa02-45ff-8047-182b3cdd538f" d="M717.53,444.25a10,10,0,1,0,10-10A10,10,0,0,0,717.53,444.25Z"/><path class="de25f404-e488-4d6b-a3ae-73c1eeda0e36" d="M722.53,444.25a5,5,0,1,0,5-5A5,5,0,0,0,722.53,444.25Z"/><path class="d83535c7-1262-4bfe-9922-ce56a147c514" d="M641.13,460a40,40,0,1,1-40-40,40,40,0,0,1,40,40"/><path class="de25f404-e488-4d6b-a3ae-73c1eeda0e36" d="M594.59,452.72a1.6,1.6,0,0,1-1.6-1.6c0-3.69,6.3-5.68,8.88-5.68s8.88,2,8.88,5.68a1.6,1.6,0,0,1-3.2,0c-.14-.83-3.61-2.48-5.68-2.48s-5.54,1.65-5.68,2.49a1.6,1.6,0,0,1-1.6,1.59Z"/><path class="b3994507-f7f8-4246-b93f-9d02fc87e0ac" d="M562,445.62a17.68,17.68,0,1,0,34.48,5.5,17.85,17.85,0,0,0-.88-5.5,37.11,37.11,0,0,0-33.6,0Z"/><path class="b3994507-f7f8-4246-b93f-9d02fc87e0ac" d="M641.11,445.62a17.68,17.68,0,1,1-34.48,5.5,17.85,17.85,0,0,1,.88-5.5,37.11,37.11,0,0,1,33.6,0Z"/><path class="6d13968a-03d7-42f2-87d3-872aa02477e0" d="M569.48,455a1.58,1.58,0,0,1-1.15-.5,1.6,1.6,0,0,1,0-2.26l5.38-5.15a1.6,1.6,0,0,1,2.21,2.31l-5.38,5.16a1.63,1.63,0,0,1-1.11.44Z"/><path class="6d13968a-03d7-42f2-87d3-872aa02477e0" d="M576.66,458.45a1.57,1.57,0,0,1-1.15-.49,1.6,1.6,0,0,1,0-2.26l9-8.59a1.6,1.6,0,1,1,2.22,2.31l-9,8.59a1.58,1.58,0,0,1-1.11.44Z"/><path class="6d13968a-03d7-42f2-87d3-872aa02477e0" d="M612.18,455a1.6,1.6,0,0,1-1.11-2.76l5.39-5.15a1.6,1.6,0,1,1,2.21,2.31l-5.39,5.16a1.62,1.62,0,0,1-1.1.44Z"/><path class="6d13968a-03d7-42f2-87d3-872aa02477e0" d="M619.36,458.45a1.6,1.6,0,0,1-1.11-2.75l9-8.59a1.6,1.6,0,0,1,2.21,2.31l-9,8.59a1.57,1.57,0,0,1-1.1.44Z"/><path class="8e9348a5-aa02-45ff-8047-182b3cdd538f" d="M601.28,489.49a22.48,22.48,0,0,0,21-15.29h-42A22.5,22.5,0,0,0,601.28,489.49Z"/><path class="d83535c7-1262-4bfe-9922-ce56a147c514" d="M501.53,460a40,40,0,1,1-40-40,40,40,0,0,1,40,40"/><path class="de25f404-e488-4d6b-a3ae-73c1eeda0e36" d="M463.14,480.49a1.39,1.39,0,0,1-1.2-.64,1.44,1.44,0,0,1,.39-2l5-3.32-5-3.33a1.42,1.42,0,0,1-.65-1.2,1.45,1.45,0,0,1,.64-1.2l5-3.32-5-3.33a1.45,1.45,0,0,1,1.61-2.4l6.79,4.52a1.45,1.45,0,0,1,0,2.41l-5,3.32,5,3.32a1.45,1.45,0,0,1,0,2.41l-6.79,4.52a1.41,1.41,0,0,1-.8.24Z"/><path class="48633373-768c-42a8-bafe-a657aea189db" d="M506.62,478.34a4.46,4.46,0,0,0-4.29-4.29,4.28,4.28,0,0,0-3.92,2.57,4.17,4.17,0,0,0-3.83-2.57,4.47,4.47,0,0,0-4.29,4.29,4.26,4.26,0,0,0,.14,1.62,7.12,7.12,0,0,0,2.26,3.64l5.72,5,5.81-5a7.12,7.12,0,0,0,2.26-3.64A4,4,0,0,0,506.62,478.34Z"/><path class="48633373-768c-42a8-bafe-a657aea189db" d="M494.63,465.29a4.21,4.21,0,0,0,.14-1.61,4.46,4.46,0,0,0-4.28-4.29,4.31,4.31,0,0,0-3.94,2.57,4.14,4.14,0,0,0-3.82-2.57,4.46,4.46,0,0,0-4.29,4.29,4.21,4.21,0,0,0,.14,1.61,7.12,7.12,0,0,0,2.26,3.64l5.71,5,5.82-5A7.05,7.05,0,0,0,494.63,465.29Z"/><path class="de25f404-e488-4d6b-a3ae-73c1eeda0e36" d="M453.87,450.33a1.66,1.66,0,0,1-1.66-1.66,5.68,5.68,0,0,0-11.36,0,1.66,1.66,0,1,1-3.32,0,9,9,0,0,1,18,0,1.66,1.66,0,0,1-1.66,1.66Z"/><path class="de25f404-e488-4d6b-a3ae-73c1eeda0e36" d="M483.87,450.33a1.66,1.66,0,0,1-1.66-1.66,5.68,5.68,0,1,0-11.36,0,1.66,1.66,0,1,1-3.32,0,9,9,0,0,1,18,0,1.66,1.66,0,0,1-1.66,1.66Z"/><circle class="d83535c7-1262-4bfe-9922-ce56a147c514" cx="321.53" cy="460" r="40"/><circle class="de25f404-e488-4d6b-a3ae-73c1eeda0e36" cx="309.38" cy="446.2" r="6.28"/><circle class="de25f404-e488-4d6b-a3ae-73c1eeda0e36" cx="333.13" cy="446.2" r="6.28"/><path class="6fae3685-49d3-4b8d-9f30-63ceda310a48" d="M342.48,473.43a2.35,2.35,0,0,1,1.34,3l-1.7,4.37a2.35,2.35,0,0,1-3,1.34l-38.5-15a2.35,2.35,0,0,1-1.34-3l1.7-4.37a2.34,2.34,0,0,1,3-1.33Z"/><path class="d91c1d1f-ad31-476a-a260-df14eccc3c4a" d="M338.55,457.7a2.34,2.34,0,0,1,3.09,1.21l1.89,4.29a2.35,2.35,0,0,1-1.2,3.09l-37.82,16.64a2.35,2.35,0,0,1-3.09-1.21l-1.89-4.29a2.35,2.35,0,0,1,1.2-3.09Z"/><path class="d83535c7-1262-4bfe-9922-ce56a147c514" d="M221.53,460a40,40,0,1,1-40-40,40,40,0,0,1,40,40"/><path class="1d55f229-b503-48ac-89b7-e31ec69aba7d" d="M181.53,434.5c-16,0-28-4.95-28-11.5s12-11.5,28-11.5,28,4.94,28,11.5-12,11.5-28,11.5Zm0-19.15c-13.48,0-23.56,4-23.56,7.65s10.08,7.65,23.56,7.65,23.56-4,23.56-7.65-10.07-7.65-23.56-7.65Z"/><path class="de25f404-e488-4d6b-a3ae-73c1eeda0e36" d="M175.69,456.64a1.84,1.84,0,0,1-1.85-1.84,6.31,6.31,0,1,0-12.62,0,1.85,1.85,0,0,1-3.69,0,10,10,0,0,1,20,0,1.84,1.84,0,0,1-1.84,1.84Z"/><path class="de25f404-e488-4d6b-a3ae-73c1eeda0e36" d="M203.68,456.64a1.84,1.84,0,0,1-1.84-1.84,6.31,6.31,0,1,0-12.62,0,1.85,1.85,0,0,1-3.69,0,10,10,0,0,1,20,0,1.84,1.84,0,0,1-1.85,1.84Z"/><path class="48633373-768c-42a8-bafe-a657aea189db" d="M199,467a1.64,1.64,0,0,0-1.38-.11,1.94,1.94,0,0,0-1.14,1.12c-2.7,6.73-8.56,11.07-14.94,11.07S169.3,474.71,166.59,468a1.93,1.93,0,0,0-1.12-1.12,1.67,1.67,0,0,0-1.38.1,2.2,2.2,0,0,0-.89,2.72c3.3,8.21,10.5,13.52,18.33,13.52s15-5.31,18.34-13.52A2.19,2.19,0,0,0,199,467Z"/><path class="d83535c7-1262-4bfe-9922-ce56a147c514" d="M81.53,460a40,40,0,1,1-40-40,40,40,0,0,1,40,40"/><path class="2e8db9b9-da35-436b-97f4-bb4a4c627464" d="M36.71,451.58a16.07,16.07,0,1,1-16.07-16.07A16.07,16.07,0,0,1,36.71,451.58Z"/><path class="de25f404-e488-4d6b-a3ae-73c1eeda0e36" d="M20.64,469.19a17.61,17.61,0,1,1,17.61-17.61,17.63,17.63,0,0,1-17.61,17.61Zm0-32.14a14.53,14.53,0,1,0,14.53,14.53,14.54,14.54,0,0,0-14.53-14.53Z"/><path class="2e8db9b9-da35-436b-97f4-bb4a4c627464" d="M78.49,451.58a16.07,16.07,0,1,1-16.07-16.07A16.07,16.07,0,0,1,78.49,451.58Z"/><path class="de25f404-e488-4d6b-a3ae-73c1eeda0e36" d="M62.42,469.19A17.61,17.61,0,1,1,80,451.58a17.63,17.63,0,0,1-17.61,17.61Zm0-32.14a14.53,14.53,0,1,0,14.52,14.53,14.55,14.55,0,0,0-14.52-14.53Z"/><path class="de25f404-e488-4d6b-a3ae-73c1eeda0e36" d="M45.56,450.83h-8a1.54,1.54,0,0,1,0-3.08h8a1.54,1.54,0,1,1,0,3.08Z"/><path class="fb1821e5-f690-48a9-b904-4fd9347ecfa8" d="M30.11,457a4,4,0,1,1-4-4,4,4,0,0,1,4,4"/><path class="fb1821e5-f690-48a9-b904-4fd9347ecfa8" d="M61,457a4,4,0,1,1-4-4,4,4,0,0,1,4,4"/><path class="48633373-768c-42a8-bafe-a657aea189db" d="M35.73,486a23.83,23.83,0,0,1-9.21-1.83,1.6,1.6,0,1,1,1.23-2.95,21.27,21.27,0,0,0,15.6.18,19.2,19.2,0,0,0,11.1-10.52,1.6,1.6,0,0,1,3,1.23C53.81,480.77,45,486,35.73,486Z"/><path class="f323972c-a857-46e8-8b3f-27129e528001" d="M741.53,280a40,40,0,1,1-40,40,40,40,0,0,1,40-40Z"/><path class="02568e48-ae0d-4b62-817d-aee8ccf94e06" d="M731.61,313.52c-3.12.09-6.47.34-9.49-.35-7-1.61-9.91-8.44-6.9-14.56,8.63-17.51,44-17.51,52.62,0,3,6.12.15,12.95-6.9,14.56-3,.69-6.36.44-9.48.35-7.11-.21-12.75-.21-19.85,0Z"/><path class="e75bebbf-d6cb-4889-b244-7d6c8e831ab1" d="M707.36,337c-1.15-5.93,4.62-7,8.95-4.21,5,3.3,10.14,12.75,10.33,18.78.2,6.28-.89,12.22-8.61,12-3.92-.13-8.17-2.11-8.53-7.66s1.11-6.72-.43-13.18c-.44-1.87-1.39-4-1.71-5.7Z"/><path class="e75bebbf-d6cb-4889-b244-7d6c8e831ab1" d="M775.7,337c1.15-5.93-4.62-7-9-4.21-5,3.3-10.14,12.75-10.33,18.78-.2,6.28.89,12.22,8.61,12,3.92-.13,8.17-2.11,8.53-7.66s-1.11-6.72.43-13.18c.45-1.87,1.39-4,1.71-5.7Z"/><path class="4d28ffba-bdd6-405a-9f2c-203aa8f3ca44" d="M741.53,325.89h0a8.22,8.22,0,0,1,8.2,8.19v9.19a8.22,8.22,0,0,1-8.2,8.2h0a8.21,8.21,0,0,1-8.19-8.19v-9.19a8.21,8.21,0,0,1,8.19-8.19Z"/><path class="9b500ee1-5a13-46b3-b94d-724a33898be5" d="M731.15,303.3c5.24,3,6.64,10.42,3.12,16.51s-10.61,8.58-15.85,5.56-6.65-10.42-3.13-16.51,10.62-8.58,15.86-5.56Z"/><path class="9b500ee1-5a13-46b3-b94d-724a33898be5" d="M751.91,303.3c-5.24,3-6.64,10.42-3.12,16.51s10.62,8.58,15.86,5.56,6.64-10.42,3.12-16.51-10.62-8.58-15.86-5.56Z"/><circle class="d83535c7-1262-4bfe-9922-ce56a147c514" cx="601.53" cy="320" r="40"/><path class="8d47351b-4f16-4909-adb6-61d7804a0a67" d="M611.87,358.54H591.19a3.33,3.33,0,0,1-3.33-3.32v-21a13.67,13.67,0,0,1,27.34,0v21A3.33,3.33,0,0,1,611.87,358.54Z"/><path class="745d016e-391b-4839-9b4a-ac5bf1468a66" d="M605.52,354v20.82a4,4,0,0,0,8,0V354Z"/><path class="8e9348a5-aa02-45ff-8047-182b3cdd538f" d="M611.29,371.84a.65.65,0,0,1-.66-.66V356a.66.66,0,1,1,1.32,0v15.18A.65.65,0,0,1,611.29,371.84Z"/><path class="745d016e-391b-4839-9b4a-ac5bf1468a66" d="M589.57,354v11a4,4,0,0,0,8,0V354Z"/><path class="745d016e-391b-4839-9b4a-ac5bf1468a66" d="M605.52,354v9.82a4,4,0,1,0-8,0V354Z"/><path class="8e9348a5-aa02-45ff-8047-182b3cdd538f" d="M593,367.22a.66.66,0,0,1,0-1.32,1.57,1.57,0,0,0,1.57-1.57.67.67,0,1,1,1.33,0A2.9,2.9,0,0,1,593,367.22Z"/><path class="8e9348a5-aa02-45ff-8047-182b3cdd538f" d="M595.26,363a.67.67,0,0,1-.67-.66V357.6a.67.67,0,0,1,1.33,0v4.75A.67.67,0,0,1,595.26,363Z"/><path class="8e9348a5-aa02-45ff-8047-182b3cdd538f" d="M609.06,377.25a.66.66,0,0,1,0-1.32,1.58,1.58,0,0,0,1.57-1.57.66.66,0,1,1,1.32,0A2.89,2.89,0,0,1,609.06,377.25Z"/><path class="745d016e-391b-4839-9b4a-ac5bf1468a66" d="M593.49,380.58a4.08,4.08,0,0,0,4-2.91,4,4,0,0,0-3.84-5.07h-.14a4,4,0,0,0,0,8Z"/><path class="de25f404-e488-4d6b-a3ae-73c1eeda0e36" d="M582.25,317.87a1.72,1.72,0,0,1-1-3.14l9.11-6.17-9.11-6.17a1.72,1.72,0,0,1,1.92-2.85l11.22,7.6a1.72,1.72,0,0,1,0,2.84l-11.22,7.6a1.69,1.69,0,0,1-1,.29Z"/><path class="de25f404-e488-4d6b-a3ae-73c1eeda0e36" d="M620.81,317.87a1.69,1.69,0,0,1-1-.29L608.64,310a1.71,1.71,0,0,1,0-2.84l11.21-7.6a1.72,1.72,0,0,1,1.93,2.85l-9.12,6.17,9.12,6.17a1.72,1.72,0,0,1-1,3.14Z"/><path class="d83535c7-1262-4bfe-9922-ce56a147c514" d="M501.53,320a40,40,0,1,1-40-40,40,40,0,0,1,40,40"/><path class="48633373-768c-42a8-bafe-a657aea189db" d="M472.17,331.37H450.89a11.5,11.5,0,1,0,21.28,0Z"/><path class="8e9348a5-aa02-45ff-8047-182b3cdd538f" d="M472.17,331.37a10.57,10.57,0,0,0-.71-1.43,1.74,1.74,0,0,1-.11-.18,12,12,0,0,0-2-2.41,1.54,1.54,0,0,1-.19-.17,13.38,13.38,0,0,0-1.19-.95h0a12.09,12.09,0,0,0-1.31-.76l-.3-.14a12.84,12.84,0,0,0-1.38-.56h0a12,12,0,0,0-1.49-.35l-.37,0a11.75,11.75,0,0,0-1.58-.12,11.48,11.48,0,0,0-1.57.12l-.38,0a12,12,0,0,0-1.49.35h0a12.06,12.06,0,0,0-1.38.56l-.3.14a12.23,12.23,0,0,0-1.32.76h0a10.89,10.89,0,0,0-1.18.95l-.19.17a11.37,11.37,0,0,0-2,2.41,1.74,1.74,0,0,1-.11.18,13.59,13.59,0,0,0-.71,1.43h21.28Z"/><path class="8e9348a5-aa02-45ff-8047-182b3cdd538f" d="M434.53,303.44a10.67,10.67,0,1,1,10.67,10.67,10.67,10.67,0,0,1-10.67-10.67"/><path class="de25f404-e488-4d6b-a3ae-73c1eeda0e36" d="M445.19,308.87a3.64,3.64,0,1,1,3.64,3.64,3.64,3.64,0,0,1-3.64-3.64"/><path class="8e9348a5-aa02-45ff-8047-182b3cdd538f" d="M488.53,303.44a10.67,10.67,0,1,0-10.67,10.67,10.67,10.67,0,0,0,10.67-10.67"/><path class="de25f404-e488-4d6b-a3ae-73c1eeda0e36" d="M477.87,308.87a3.64,3.64,0,1,0-3.64,3.64,3.64,3.64,0,0,0,3.64-3.64"/><path class="d83535c7-1262-4bfe-9922-ce56a147c514" d="M302.41,355.14a40,40,0,1,1,38.25,0"/><path class="de25f404-e488-4d6b-a3ae-73c1eeda0e36" d="M342.24,343.35a1.79,1.79,0,0,0-1.78,0l-18.93,10.48L302.6,343.33a1.8,1.8,0,0,0-2.67,1.57v18a1.81,1.81,0,0,0,.76,1.47,1.78,1.78,0,0,0,1,.33,1.76,1.76,0,0,0,.6-.1l19.2-6.82,19.2,6.82a1.76,1.76,0,0,0,.6.1,1.78,1.78,0,0,0,1-.33,1.81,1.81,0,0,0,.76-1.47v-18A1.79,1.79,0,0,0,342.24,343.35Z"/><path class="b3994507-f7f8-4246-b93f-9d02fc87e0ac" d="M315.42,314.69c0,3.73-2.23,7.92-6,7.92H293.81c-3.38,0-6.91-3.9-6.91-7.28v-8.14c0-3.38,3.53-4.95,6.91-4.95h21.61Z"/><path class="de25f404-e488-4d6b-a3ae-73c1eeda0e36" d="M309.45,324.48H293.81c-4.35,0-8.78-4.62-8.78-9.15v-8.14c0-4,3.61-6.83,8.78-6.83h21.61a1.87,1.87,0,0,1,1.87,1.88v12.45c0,4.71-3,9.79-7.84,9.79Zm-15.64-20.37c-1.74,0-5,.64-5,3.08v8.14c0,2.43,2.77,5.4,5,5.4h15.64c2.45,0,4.1-3.12,4.1-6V304.11Z"/><path class="b3994507-f7f8-4246-b93f-9d02fc87e0ac" d="M327.64,314.69c0,3.73,3.82,7.92,7.56,7.92h15.64c3.38,0,5.32-3.9,5.32-7.28v-8.14c0-3.38-1.94-4.95-5.32-4.95h-23.2Z"/><path class="de25f404-e488-4d6b-a3ae-73c1eeda0e36" d="M350.84,324.48H335.2c-4.67,0-9.43-4.94-9.43-9.79V302.24a1.88,1.88,0,0,1,1.87-1.88h23.2c4.5,0,7.19,2.56,7.19,6.83v8.14c0,4.5-2.69,9.15-7.19,9.15Zm-21.32-20.37v10.58c0,2.76,3.08,6,5.68,6h15.64c2,0,3.44-2.84,3.44-5.4v-8.14c0-1.85-.58-3.08-3.44-3.08Z"/><path class="de25f404-e488-4d6b-a3ae-73c1eeda0e36" d="M325.61,308.19h-8.15a1.88,1.88,0,1,1,0-3.75h8.15a1.88,1.88,0,0,1,0,3.75Z"/><path class="48633373-768c-42a8-bafe-a657aea189db" d="M322.21,339.38a17.58,17.58,0,0,1-15.89-10.15,1.21,1.21,0,1,1,2.2-1,15.08,15.08,0,0,0,27.38,0,1.21,1.21,0,1,1,2.2,1,17.59,17.59,0,0,1-15.89,10.15Z"/><circle class="32b84f90-c2c8-45c2-b254-bc3f8f543549" cx="321.53" cy="355.5" r="4"/><path class="e0c2e8b7-dfa2-492a-abc1-2082a055765b" d="M306.46,312.14a2.47,2.47,0,1,1-2.46-2.46,2.47,2.47,0,0,1,2.46,2.46"/><path class="e0c2e8b7-dfa2-492a-abc1-2082a055765b" d="M341.53,312.14a2.47,2.47,0,1,1-2.46-2.46,2.47,2.47,0,0,1,2.46,2.46"/><path class="d83535c7-1262-4bfe-9922-ce56a147c514" d="M221.53,320a40,40,0,1,1-40-40,40,40,0,0,1,40,40"/><path class="de25f404-e488-4d6b-a3ae-73c1eeda0e36" d="M181.53,343.37a24.64,24.64,0,0,1-22.25-14.23,1.75,1.75,0,1,1,3.17-1.48,21,21,0,0,0,38.16,0,1.75,1.75,0,1,1,3.17,1.48,24.63,24.63,0,0,1-22.25,14.23Z"/><path class="48633373-768c-42a8-bafe-a657aea189db" d="M167.27,303A6.37,6.37,0,1,1,178,307.65h0l-10.71,10.7-10.71-10.7h0a6.36,6.36,0,1,1,10.7-4.65Z"/><path class="48633373-768c-42a8-bafe-a657aea189db" d="M195.8,303a6.37,6.37,0,1,1,10.69,4.65h0l-10.7,10.7-10.71-10.7h0a6.35,6.35,0,0,1,4.33-11A6.37,6.37,0,0,1,195.8,303Z"/><path class="d83535c7-1262-4bfe-9922-ce56a147c514" d="M81.53,320a40,40,0,1,1-40-40,40,40,0,0,1,40,40"/><path class="48633373-768c-42a8-bafe-a657aea189db" d="M65.12,331.68H17.94q-.57-1.15-1-2.34a26.79,26.79,0,0,0,24.61,17.11,26.78,26.78,0,0,0,24.61-17.1C65.84,330.13,65.5,330.91,65.12,331.68Z"/><path class="8e9348a5-aa02-45ff-8047-182b3cdd538f" d="M65.12,331.68c.38-.77.72-1.55,1-2.33v0a23.41,23.41,0,0,0,.71-2.25l.06-.21c.17-.68.29-1.38.4-2.07,0-.13,0-.26.06-.39a18,18,0,0,0,.16-2.43h-52a19.83,19.83,0,0,0,.16,2.43c0,.13.05.25.07.38a20.61,20.61,0,0,0,.39,2.08l.06.21a23.41,23.41,0,0,0,.71,2.25h0q.45,1.19,1,2.34Z"/><polygon class="7879e964-97eb-4d0c-bff7-2865cab6e92e" points="24.16 290.55 28.22 298.78 37.3 300.1 30.73 306.5 32.28 315.55 24.16 311.28 16.04 315.55 17.59 306.5 11.02 300.1 20.1 298.78 24.16 290.55"/><polygon class="7879e964-97eb-4d0c-bff7-2865cab6e92e" points="58.9 290.55 62.97 298.78 72.05 300.1 65.48 306.5 67.03 315.55 58.9 311.28 50.78 315.55 52.33 306.5 45.76 300.1 54.85 298.78 58.9 290.55"/><circle class="d83535c7-1262-4bfe-9922-ce56a147c514" cx="741.53" cy="180" r="40"/><circle class="8e9348a5-aa02-45ff-8047-182b3cdd538f" cx="758.53" cy="169.92" r="11.21"/><path class="de25f404-e488-4d6b-a3ae-73c1eeda0e36" d="M763,164a4.5,4.5,0,1,1-4.5-4.5A4.49,4.49,0,0,1,763,164Z"/><circle class="8e9348a5-aa02-45ff-8047-182b3cdd538f" cx="724.53" cy="169.92" r="11.21"/><circle class="de25f404-e488-4d6b-a3ae-73c1eeda0e36" cx="724.53" cy="164" r="4.5"/><rect class="48633373-768c-42a8-bafe-a657aea189db" x="732.03" y="194.31" width="19" height="7.39" rx="3.63" ry="3.63"/><circle class="d83535c7-1262-4bfe-9922-ce56a147c514" cx="601.53" cy="180" r="40"/><path class="de25f404-e488-4d6b-a3ae-73c1eeda0e36" d="M593.87,168.72a1.66,1.66,0,0,1-1.66-1.66,5.68,5.68,0,0,0-11.36,0,1.66,1.66,0,1,1-3.32,0,9,9,0,1,1,18,0,1.66,1.66,0,0,1-1.66,1.66Z"/><path class="de25f404-e488-4d6b-a3ae-73c1eeda0e36" d="M623.87,168.72a1.66,1.66,0,0,1-1.66-1.66,5.68,5.68,0,0,0-11.36,0,1.66,1.66,0,1,1-3.32,0,9,9,0,1,1,18,0,1.66,1.66,0,0,1-1.66,1.66Z"/><path class="48633373-768c-42a8-bafe-a657aea189db" d="M624.66,185.12H578.4a20.27,20.27,0,0,1-.87-4.26c.94,10.78,11.32,21.09,24,21.09s23.06-10.3,24-21.08A20.18,20.18,0,0,1,624.66,185.12Z"/><path class="8e9348a5-aa02-45ff-8047-182b3cdd538f" d="M625.06,185.59a19.72,19.72,0,0,0,.89-4.33,1.49,1.49,0,0,0,0-.21c0-.47.06-.94.06-1.4H577c0,.46,0,.93.06,1.4,0,.07,0,.14,0,.21a20.32,20.32,0,0,0,.89,4.33Z"/><path class="1d55f229-b503-48ac-89b7-e31ec69aba7d" d="M629.53,161.28c4.43,0,6.64-3.37,5.66-8.15-.67-3.24-3.45-7-5.66-10.41-2.21,3.38-5,7.17-5.65,10.41C622.89,157.9,625.1,161.28,629.53,161.28Z"/><path class="d83535c7-1262-4bfe-9922-ce56a147c514" d="M501.53,180a40,40,0,1,1-40-40,40,40,0,0,1,40,40"/><path class="de25f404-e488-4d6b-a3ae-73c1eeda0e36" d="M438.81,174.51a1.53,1.53,0,0,1-1.09-2.61l15.46-15.45a1.53,1.53,0,0,1,2.16,2.16l-15.45,15.45a1.52,1.52,0,0,1-1.08.45Z"/><path class="de25f404-e488-4d6b-a3ae-73c1eeda0e36" d="M454.26,174.51a1.51,1.51,0,0,1-1.08-.45l-15.46-15.45a1.53,1.53,0,1,1,2.17-2.16l15.45,15.45a1.53,1.53,0,0,1-1.08,2.61Z"/><path class="de25f404-e488-4d6b-a3ae-73c1eeda0e36" d="M468.8,174.51a1.52,1.52,0,0,1-1.08-.45,1.54,1.54,0,0,1,0-2.16l15.46-15.45a1.53,1.53,0,0,1,2.16,2.16l-15.45,15.45a1.53,1.53,0,0,1-1.09.45Z"/><path class="de25f404-e488-4d6b-a3ae-73c1eeda0e36" d="M484.26,174.51a1.51,1.51,0,0,1-1.08-.45l-15.46-15.45a1.53,1.53,0,1,1,2.17-2.16l15.45,15.45a1.53,1.53,0,0,1-1.08,2.61Z"/><path class="48633373-768c-42a8-bafe-a657aea189db" d="M461.7,190.93v18.43c0,4.52,4.77,8.22,10.59,8.22h.95c5.82,0,10.59-3.7,10.59-8.22V190.93Z"/><path class="1bf86bb8-05a3-41de-9f11-45e470322988" d="M472.76,209.06a1.7,1.7,0,0,1-1.7-1.7V192.89a1.71,1.71,0,0,1,3.41,0v14.47a1.71,1.71,0,0,1-1.71,1.7Z"/><path class="e8451c66-2924-4a75-a0df-7750f44bd7c2" d="M483.83,193.83h-44.6a1.71,1.71,0,0,1,0-3.41h44.6a1.71,1.71,0,0,1,0,3.41Z"/><circle class="d83535c7-1262-4bfe-9922-ce56a147c514" cx="321.53" cy="180" r="40"/><path class="48633373-768c-42a8-bafe-a657aea189db" d="M328.2,191.52H314.87a7.2,7.2,0,1,0,13.33,0Z"/><path class="8e9348a5-aa02-45ff-8047-182b3cdd538f" d="M328.19,191.52a6.69,6.69,0,0,0-.44-.89.75.75,0,0,1-.07-.12,7.41,7.41,0,0,0-1.22-1.51l-.12-.1a7,7,0,0,0-.75-.6h0a6.18,6.18,0,0,0-.83-.48l-.18-.09a8.31,8.31,0,0,0-.87-.35h0a6.11,6.11,0,0,0-.94-.22l-.23,0a7,7,0,0,0-2,0l-.24,0a6,6,0,0,0-.93.22h0a8.14,8.14,0,0,0-.86.35l-.19.09a6.75,6.75,0,0,0-.82.48h0a6.06,6.06,0,0,0-.74.6l-.12.1a7.09,7.09,0,0,0-1.22,1.51.75.75,0,0,0-.07.12,6.74,6.74,0,0,0-.45.89h13.32Z"/><path class="1d55f229-b503-48ac-89b7-e31ec69aba7d" d="M304.86,215.85A4.89,4.89,0,0,1,300,211V168.1a4.89,4.89,0,0,1,9.77,0V211a4.89,4.89,0,0,1-4.88,4.89Z"/><path class="de25f404-e488-4d6b-a3ae-73c1eeda0e36" d="M310.83,170.83a1.34,1.34,0,0,1-1.35-1.35,4.63,4.63,0,0,0-9.25,0,1.35,1.35,0,1,1-2.7,0,7.33,7.33,0,1,1,14.65,0,1.34,1.34,0,0,1-1.35,1.35Z"/><path class="1d55f229-b503-48ac-89b7-e31ec69aba7d" d="M338.21,215.85a4.89,4.89,0,0,1-4.89-4.89V168.1a4.89,4.89,0,0,1,9.77,0V211a4.89,4.89,0,0,1-4.88,4.89Z"/><path class="de25f404-e488-4d6b-a3ae-73c1eeda0e36" d="M344.18,170.83a1.34,1.34,0,0,1-1.35-1.35,4.63,4.63,0,0,0-9.25,0,1.35,1.35,0,1,1-2.7,0,7.33,7.33,0,1,1,14.65,0,1.35,1.35,0,0,1-1.35,1.35Z"/><path class="d83535c7-1262-4bfe-9922-ce56a147c514" d="M221.53,180a40,40,0,1,1-40-40,40,40,0,0,1,40,40"/><path class="b3994507-f7f8-4246-b93f-9d02fc87e0ac" d="M177.19,166.92a14.47,14.47,0,1,1-14.46-14.46A14.46,14.46,0,0,1,177.19,166.92Z"/><path class="de25f404-e488-4d6b-a3ae-73c1eeda0e36" d="M162.73,183.12a16.2,16.2,0,1,1,16.2-16.2,16.22,16.22,0,0,1-16.2,16.2Zm0-28.93a12.73,12.73,0,1,0,12.73,12.73,12.74,12.74,0,0,0-12.73-12.73Z"/><path class="b3994507-f7f8-4246-b93f-9d02fc87e0ac" d="M214.8,166.92a14.47,14.47,0,1,1-14.47-14.46A14.47,14.47,0,0,1,214.8,166.92Z"/><path class="de25f404-e488-4d6b-a3ae-73c1eeda0e36" d="M200.33,183.12a16.2,16.2,0,1,1,16.2-16.2,16.21,16.21,0,0,1-16.2,16.2Zm0-28.93a12.73,12.73,0,1,0,12.74,12.73,12.74,12.74,0,0,0-12.74-12.73Z"/><path class="de25f404-e488-4d6b-a3ae-73c1eeda0e36" d="M185.16,166.59H178a1.73,1.73,0,0,1,0-3.46h7.18a1.73,1.73,0,1,1,0,3.46Z"/><path class="6d13968a-03d7-42f2-87d3-872aa02477e0" d="M156.86,169.5a1.74,1.74,0,0,1-1.25-.54,1.73,1.73,0,0,1,0-2.45l4.51-4.32a1.73,1.73,0,1,1,2.4,2.5L158.06,169a1.76,1.76,0,0,1-1.2.49Z"/><path class="6d13968a-03d7-42f2-87d3-872aa02477e0" d="M162.88,172.38a1.74,1.74,0,0,1-1.25-.54,1.73,1.73,0,0,1,.05-2.45l7.53-7.2a1.73,1.73,0,1,1,2.39,2.5l-7.52,7.2a1.76,1.76,0,0,1-1.2.49Z"/><path class="6d13968a-03d7-42f2-87d3-872aa02477e0" d="M192.66,169.5a1.74,1.74,0,0,1-1.25-.54,1.73,1.73,0,0,1,.05-2.45l4.52-4.32a1.73,1.73,0,1,1,2.39,2.5L193.86,169a1.76,1.76,0,0,1-1.2.49Z"/><path class="6d13968a-03d7-42f2-87d3-872aa02477e0" d="M198.68,172.38a1.74,1.74,0,0,1-1.25-.54,1.73,1.73,0,0,1,0-2.45l7.53-7.2a1.73,1.73,0,1,1,2.39,2.5l-7.52,7.2a1.76,1.76,0,0,1-1.2.49Z"/><path class="48633373-768c-42a8-bafe-a657aea189db" d="M201,194.91h-39.5a21.16,21.16,0,0,0,19.75,14.37c10.18,0,18.6-7.77,20.25-16.35A17.39,17.39,0,0,1,201,194.91Z"/><path class="8e9348a5-aa02-45ff-8047-182b3cdd538f" d="M201.72,192.81c.05-.28.1-.55.14-.83s.06-.41.08-.62c.05-.52.09-1,.09-1.55H161c0,.52,0,1,.09,1.55,0,.2,0,.41.08.62s.09.56.15.85a17.41,17.41,0,0,0,.46,1.86l0,.09h39.38A17.23,17.23,0,0,0,201.72,192.81Z"/><circle class="d83535c7-1262-4bfe-9922-ce56a147c514" cx="41.53" cy="180" r="40"/><path class="1bf86bb8-05a3-41de-9f11-45e470322988" d="M63.36,187a21.83,21.83,0,1,1-43.66,0Z"/><path class="745d016e-391b-4839-9b4a-ac5bf1468a66" d="M30.62,192.37V211.9c0,4.45,4.7,8.1,10.45,8.1H42c5.74,0,10.44-3.65,10.44-8.1V192.37Z"/><path class="8d47351b-4f16-4909-adb6-61d7804a0a67" d="M32.12,193.87v18c0,3.58,4.1,6.6,9,6.6H42c4.85,0,8.94-3,8.94-6.6v-18Zm17.82,18c0,3-3.63,5.6-7.94,5.6h-.93c-4.31,0-8-2.56-8-5.6v-17H49.94Z"/><path class="de25f404-e488-4d6b-a3ae-73c1eeda0e36" d="M63.13,173c0-3.69-2.39-4.83-5.43-6.26L56.06,166c-3.05-1.44-3.33-1.69-3.33-2.93,0-2.18,2.58-2.35,3.37-2.35,1,0,3.27.23,3.27,2.35a1.85,1.85,0,0,0,3.69,0c0-3-2-5.22-5.12-5.84v-1.74a1.85,1.85,0,0,0-3.69,0v1.75c-3.13.62-5.2,2.84-5.2,5.83,0,3.69,2.4,4.83,5.43,6.26l1.64.78c3.05,1.44,3.33,1.69,3.33,2.93,0,2.14-2.57,2.31-3.35,2.31-1,0-3.37-.22-3.37-2.31a1.84,1.84,0,1,0-3.68,0c0,3,2,5.2,5.2,5.8v2a1.85,1.85,0,0,0,3.69,0v-2C61.1,178.24,63.13,176.07,63.13,173Z"/><path class="8d47351b-4f16-4909-adb6-61d7804a0a67" d="M45.53,208c0-2.09-1.36-2.74-3.08-3.56l-.94-.44c-1.73-.82-1.89-1-1.89-1.66,0-1.24,1.47-1.34,1.91-1.34s1.87.13,1.87,1.34a1,1,0,0,0,2.09,0A3.32,3.32,0,0,0,42.58,199v-1a1,1,0,0,0-2.09,0v1a3.38,3.38,0,0,0-3,3.32c0,2.09,1.36,2.74,3.09,3.55l.93.45c1.73.81,1.89.95,1.89,1.66,0,1.22-1.46,1.31-1.91,1.31s-1.91-.12-1.91-1.31a1,1,0,1,0-2.09,0,3.33,3.33,0,0,0,3,3.3v1.11a1,1,0,1,0,2.09,0v-1.11A3.32,3.32,0,0,0,45.53,208Z"/><path class="de25f404-e488-4d6b-a3ae-73c1eeda0e36" d="M34,173c0-3.69-2.39-4.83-5.43-6.26L26.94,166c-3-1.44-3.32-1.69-3.32-2.93,0-2.18,2.57-2.35,3.36-2.35,1,0,3.27.23,3.27,2.35a1.85,1.85,0,0,0,3.69,0c0-3-2-5.22-5.12-5.84v-1.74a1.85,1.85,0,0,0-3.69,0v1.75c-3.13.62-5.2,2.84-5.2,5.83,0,3.69,2.4,4.83,5.43,6.26l1.65.78c3,1.44,3.32,1.69,3.32,2.93,0,2.14-2.57,2.31-3.35,2.31-1,0-3.36-.22-3.36-2.31a1.85,1.85,0,0,0-3.69,0c0,3,2,5.2,5.2,5.8v2a1.85,1.85,0,0,0,3.69,0v-2C32,178.24,34,176.07,34,173Z"/><g id="57e0f980-e06e-475f-b464-782e14088453" data-name="boo"><path class="d83535c7-1262-4bfe-9922-ce56a147c514" d="M781.53,40a40,40,0,1,1-40-40,40,40,0,0,1,40,40"/><path class="8e9348a5-aa02-45ff-8047-182b3cdd538f" d="M766.7,28A10.67,10.67,0,1,0,756,38.67,10.67,10.67,0,0,0,766.7,28"/><path class="de25f404-e488-4d6b-a3ae-73c1eeda0e36" d="M759.67,28A3.64,3.64,0,1,0,756,31.64,3.64,3.64,0,0,0,759.67,28"/><path class="8e9348a5-aa02-45ff-8047-182b3cdd538f" d="M737.7,28A10.67,10.67,0,1,0,727,38.67,10.67,10.67,0,0,0,737.7,28"/><path class="de25f404-e488-4d6b-a3ae-73c1eeda0e36" d="M730.67,28A3.64,3.64,0,1,0,727,31.64,3.64,3.64,0,0,0,730.67,28"/></g><path class="190e24c4-cadf-4010-bb9b-2f6871e8fd05" d="M775.85,63.8a.46.46,0,0,1,0,.65L771,69.31a.43.43,0,0,1-.64,0l-4.37-5,4.86-4.87ZM762.78,50.86l-5.39,5.39a.51.51,0,0,0,0,.74l12.75,15.19a.51.51,0,0,0,.73,0l7.85-7.84a.53.53,0,0,0,0-.74l-15.2-12.74A.51.51,0,0,0,762.78,50.86Z"/><path class="190e24c4-cadf-4010-bb9b-2f6871e8fd05" d="M762.33,48.33h-4.27a.51.51,0,0,0-.53.48v2.67A.51.51,0,0,0,757,51h-4.27a.51.51,0,0,0-.53.48V48.81a.51.51,0,0,0-.53-.48H747.4a.51.51,0,0,0-.54.48v2.67a.51.51,0,0,0-.53-.48h-4.27a.51.51,0,0,0-.53.48V48.81a.51.51,0,0,0-.53-.48h-4.27a.51.51,0,0,0-.53.48v2.67a.51.51,0,0,0-.53-.48H731.4a.51.51,0,0,0-.54.48V48.81a.51.51,0,0,0-.53-.48h-4.27a.51.51,0,0,0-.53.48v2.67A.51.51,0,0,0,725,51h-4.27a.51.51,0,0,0-.53.48v7a.51.51,0,0,0,.53.48H725a.51.51,0,0,0,.53-.48V55.85a.51.51,0,0,0,.53.48h4.27a.51.51,0,0,0,.53-.48v2.67a.51.51,0,0,0,.54.48h4.27a.51.51,0,0,0,.53-.48V55.85a.51.51,0,0,0,.53.48H741a.51.51,0,0,0,.53-.48v2.67a.51.51,0,0,0,.53.48h4.27a.51.51,0,0,0,.53-.48V55.85a.51.51,0,0,0,.54.48h4.27a.51.51,0,0,0,.53-.48v2.67a.51.51,0,0,0,.53.48H757a.51.51,0,0,0,.53-.48V55.85a.51.51,0,0,0,.53.48h4.27a.51.51,0,0,0,.53-.48v-7A.51.51,0,0,0,762.33,48.33Z"/><path class="d83535c7-1262-4bfe-9922-ce56a147c514" d="M641.53,40a40,40,0,1,1-40-40,40,40,0,0,1,40,40"/><path class="48633373-768c-42a8-bafe-a657aea189db" d="M616.29,61.92H586.77c-.71,0-1.28-1-1.28-2.29s.57-2.29,1.28-2.29h29.52c.71,0,1.28,1,1.28,2.29s-.57,2.29-1.28,2.29Z"/><path class="8e9348a5-aa02-45ff-8047-182b3cdd538f" d="M629,29.2a11.12,11.12,0,1,1-11.12-11.12A11.11,11.11,0,0,1,629,29.2"/><path class="de25f404-e488-4d6b-a3ae-73c1eeda0e36" d="M618.9,24.66a4.77,4.77,0,1,1-4.77-4.76,4.77,4.77,0,0,1,4.77,4.76"/><path class="8e9348a5-aa02-45ff-8047-182b3cdd538f" d="M596.27,29.2a11.12,11.12,0,1,1-11.12-11.12A11.11,11.11,0,0,1,596.27,29.2"/><path class="de25f404-e488-4d6b-a3ae-73c1eeda0e36" d="M586.13,24.66a4.77,4.77,0,1,1-4.76-4.76,4.76,4.76,0,0,1,4.76,4.76"/><circle class="d83535c7-1262-4bfe-9922-ce56a147c514" cx="461.53" cy="40" r="40"/><path class="1d55f229-b503-48ac-89b7-e31ec69aba7d" d="M501.06,37.61c-3.65-2.89-10.06-4.46-15.48-6.09.66,5.63,1.1,12.21,3.31,16.3,3.25,6,8.68,7.66,13.44,3.66S506.43,41.86,501.06,37.61Z"/><path class="1d55f229-b503-48ac-89b7-e31ec69aba7d" d="M420.73,51.48c4.76,4,10.19,2.37,13.44-3.66,2.21-4.09,2.65-10.67,3.32-16.3-5.43,1.63-11.84,3.2-15.49,6.09C416.63,41.86,416,47.48,420.73,51.48Z"/><path class="de25f404-e488-4d6b-a3ae-73c1eeda0e36" d="M453.87,28.92a1.66,1.66,0,0,1-1.66-1.65,5.68,5.68,0,1,0-11.36,0,1.66,1.66,0,0,1-3.32,0,9,9,0,1,1,18,0,1.65,1.65,0,0,1-1.66,1.65Z"/><path class="de25f404-e488-4d6b-a3ae-73c1eeda0e36" d="M483.87,28.92a1.66,1.66,0,0,1-1.66-1.65,5.68,5.68,0,1,0-11.36,0,1.66,1.66,0,0,1-3.32,0,9,9,0,1,1,18,0,1.65,1.65,0,0,1-1.66,1.65Z"/><path class="48633373-768c-42a8-bafe-a657aea189db" d="M484.66,44.91H438.4a20.18,20.18,0,0,1-.87-4.25c.94,10.78,11.32,21.08,24,21.08s23.06-10.3,24-21.07A20.09,20.09,0,0,1,484.66,44.91Z"/><path class="8e9348a5-aa02-45ff-8047-182b3cdd538f" d="M485.06,45.38a19.64,19.64,0,0,0,.89-4.32,1.64,1.64,0,0,0,0-.22c0-.46.06-.93.06-1.4H437q0,.7.06,1.41c0,.06,0,.13,0,.2a20.32,20.32,0,0,0,.89,4.33Z"/><path class="d83535c7-1262-4bfe-9922-ce56a147c514" d="M361.53,40a40,40,0,1,1-40-40,40,40,0,0,1,40,40"/><path class="8e9348a5-aa02-45ff-8047-182b3cdd538f" d="M326.13,24.27a9.7,9.7,0,1,0,9.7-9.69A9.7,9.7,0,0,0,326.13,24.27Z"/><path class="de25f404-e488-4d6b-a3ae-73c1eeda0e36" d="M331.23,24.27a4.6,4.6,0,1,0,4.6-4.59A4.59,4.59,0,0,0,331.23,24.27Z"/><path class="de25f404-e488-4d6b-a3ae-73c1eeda0e36" d="M315.15,30a1.8,1.8,0,0,1-1.8-1.79,6.12,6.12,0,0,0-12.24,0,1.79,1.79,0,0,1-3.58,0,9.71,9.71,0,0,1,19.41,0A1.79,1.79,0,0,1,315.15,30Z"/><path class="1bf86bb8-05a3-41de-9f11-45e470322988" d="M343.36,46a21.83,21.83,0,0,1-43.66,0Z"/><path class="48633373-768c-42a8-bafe-a657aea189db" d="M310.62,50.37V71.9c0,4.45,4.7,8.1,10.45,8.1H322c5.74,0,10.44-3.65,10.44-8.1V50.37Z"/><path class="1bf86bb8-05a3-41de-9f11-45e470322988" d="M321.53,68.25a1.68,1.68,0,0,1-1.68-1.68V52.3a1.68,1.68,0,1,1,3.36,0V66.57a1.68,1.68,0,0,1-1.68,1.68Z"/><path class="d83535c7-1262-4bfe-9922-ce56a147c514" d="M221.53,40a40,40,0,1,1-40-40,40,40,0,0,1,40,40"/><circle class="664c9d3f-1173-43e4-beeb-593902467743" cx="206.69" cy="45.41" r="10.34"/><circle class="664c9d3f-1173-43e4-beeb-593902467743" cx="156.37" cy="45.41" r="10.34"/><path class="48633373-768c-42a8-bafe-a657aea189db" d="M195.93,49a1.85,1.85,0,0,0-1-1,2,2,0,0,0-1.38-.09,1.88,1.88,0,0,0-1.17,1,12.25,12.25,0,0,1-21.72,0,1.84,1.84,0,0,0-1.15-1,2.07,2.07,0,0,0-1.39.09,1.82,1.82,0,0,0-1,1,1.71,1.71,0,0,0,.06,1.33,16.19,16.19,0,0,0,28.66,0A1.71,1.71,0,0,0,195.93,49Z"/><path class="de25f404-e488-4d6b-a3ae-73c1eeda0e36" d="M175.2,33.83a2,2,0,0,1-2-2,6.84,6.84,0,1,0-13.67,0,2,2,0,1,1-4,0,10.84,10.84,0,0,1,21.67,0,2,2,0,0,1-2,2Z"/><path class="de25f404-e488-4d6b-a3ae-73c1eeda0e36" d="M205.53,33.83a2,2,0,0,1-2-2,6.84,6.84,0,1,0-13.67,0,2,2,0,0,1-4,0,10.84,10.84,0,0,1,21.67,0,2,2,0,0,1-2,2Z"/><circle class="d83535c7-1262-4bfe-9922-ce56a147c514" cx="41.53" cy="40" r="40"/><path class="b3994507-f7f8-4246-b93f-9d02fc87e0ac" d="M36.32,33.6A17.36,17.36,0,1,1,19,16.24,17.36,17.36,0,0,1,36.32,33.6Z"/><path class="de25f404-e488-4d6b-a3ae-73c1eeda0e36" d="M19,52.56a19,19,0,1,1,19-19,19,19,0,0,1-19,19Zm0-34.72A15.76,15.76,0,1,0,34.72,33.6,15.78,15.78,0,0,0,19,17.84Z"/><path class="b3994507-f7f8-4246-b93f-9d02fc87e0ac" d="M81.46,33.6A17.36,17.36,0,1,1,64.1,16.24,17.36,17.36,0,0,1,81.46,33.6Z"/><path class="de25f404-e488-4d6b-a3ae-73c1eeda0e36" d="M64.1,52.56a19,19,0,1,1,19-19,19,19,0,0,1-19,19Zm0-34.72A15.76,15.76,0,1,0,79.86,33.6,15.78,15.78,0,0,0,64.1,17.84Z"/><path class="de25f404-e488-4d6b-a3ae-73c1eeda0e36" d="M45.89,32.73H37.27a1.6,1.6,0,0,1,0-3.2h8.62a1.6,1.6,0,1,1,0,3.2Z"/><path class="e0c2e8b7-dfa2-492a-abc1-2082a055765b" d="M24.64,36.8a4.15,4.15,0,1,1-4.15-4.15,4.15,4.15,0,0,1,4.15,4.15"/><path class="e0c2e8b7-dfa2-492a-abc1-2082a055765b" d="M66.73,36.8a4.16,4.16,0,1,1-4.16-4.15,4.16,4.16,0,0,1,4.16,4.15"/><rect class="8e9348a5-aa02-45ff-8047-182b3cdd538f" x="35.13" y="57.6" width="6.4" height="9.6"/><path class="5e2afcac-0a6f-4492-93a3-73fa0cd3095f" d="M41.53,68h-6.4a.8.8,0,0,1-.8-.8V57.6a.8.8,0,0,1,.8-.8h6.4a.8.8,0,0,1,.8.8v9.6a.8.8,0,0,1-.8.8Zm-5.6-1.6h4.8v-8h-4.8v8Z"/><rect class="8e9348a5-aa02-45ff-8047-182b3cdd538f" x="41.53" y="57.6" width="6.4" height="9.6"/><path class="5e2afcac-0a6f-4492-93a3-73fa0cd3095f" d="M47.93,68h-6.4a.8.8,0,0,1-.8-.8V57.6a.8.8,0,0,1,.8-.8h6.4a.8.8,0,0,1,.8.8v9.6a.8.8,0,0,1-.8.8Zm-5.6-1.6h4.8v-8h-4.8v8Z"/><path class="a70d3ad3-baed-48d1-98f5-1dac7f888239" d="M54.33,59.2H28.73a1.6,1.6,0,0,1,0-3.2h25.6a1.6,1.6,0,0,1,0,3.2Z"/></g></g></svg>