<svg xmlns="http://www.w3.org/2000/svg" width="950.14" height="311" viewBox="0 0 950.14 311"><defs><style>.\31 f5d3186-2ce8-414e-ac40-5c7534594853{fill:#3931ff;}.\37 610a1f8-fafe-4d4d-af93-2637dedda4b8{fill:#fbbd1f;}.\37 5c0f59f-ab74-40a7-a826-812a8469bdcc{fill:#fbd31f;}.f02e2961-ffa4-4972-b3ba-1578831637d4{fill:#fbff1f;}.a22ec364-d21a-4d71-b687-72b372e9b119{fill:#fbe71f;}.a938cf3c-6a15-4cb6-b06e-3e08fb5858a3{fill:#75e0ff;}.\38 e0530d1-e603-43de-9f2e-94bdcf277503{fill:#c4f9ff;}.fa2a99d9-ac6c-425f-868a-889bc8dd8fa0{fill:#5fceff;}.c5694ee5-718f-4285-ab4d-8c31d11d6a57{fill:#d5f9ff;}.ed2ed298-1bd4-46e3-924b-d37aa156858e{fill:#c1f9ff;}.\31 c36d048-1971-4323-a880-b38b7e839110{fill:#75d4ff;}.\38 fae484b-07f5-427e-9100-bf0fad3a5df9{fill:#7ad2ff;}.f4f87d09-24b3-48d8-b508-f712b3b987c7{fill:#acddff;}.f5ed460b-9362-47ea-ae9d-64234f6da98f{fill:#7cbfff;}.\37 2a9efb7-b339-4540-b121-b13f2ef6d9e2{fill:#524aff;}.df2e3ec2-a8ce-49dd-a815-7133173bcedb{fill:#29abe2;}.\33 3bb8e18-7855-4c95-9d9b-6f7799554f1d{fill:none;stroke:#29abe2;stroke-linecap:round;stroke-linejoin:round;stroke-width:5px;}.\36 3a05568-081f-4017-8f14-b9b3b77c1778{fill:#656464;}.e1b71a96-13c5-45da-99bb-0c085a7844b4{fill:#728f88;}.\36 e5d6506-64f9-4890-9fc8-72f5ae573e0d{fill:#af6239;}.\30 8988c3d-c45b-4176-9b5e-061691d4dcb8{fill:#fff;}.e4968bee-1206-41c9-a2ad-1bee11911cc2{fill:#fee565;}.e64dbe26-ad4b-4427-b689-2d8bf4ffbfc0{fill:#fdd62f;}.\39 e776ca2-e4fd-4781-87e5-a3c773ac52b8{fill:#685e67;}.\30 f6a9bd1-12aa-4d97-bb3a-642d242dd432{fill:#f37e7f;}</style></defs><title>Ресурс 10</title><g id="f15f9cea-ea3c-4e43-93d6-2fb03fb9aedc" data-name="Слой 2"><g id="d9dc49da-7dc6-45ef-a46d-40ac30f16608" data-name="Слой 1"><path class="1f5d3186-2ce8-414e-ac40-5c7534594853" d="M328.15,72a8,8,0,0,1,0-16"/><path class="7610a1f8-fafe-4d4d-af93-2637dedda4b8" d="M149.13,65c0,.36,1.27,19,1.25,19.31a61.14,61.14,0,0,1-6.92,27.19,61.65,61.65,0,0,1-5.2,8.43,68.58,68.58,0,0,1-8.67,9.78,74.34,74.34,0,0,1-17.35,12,77.15,77.15,0,0,1-13.87,5.43A82,82,0,0,1,81,150.1c-1.72.1-3.45.17-5.21.17a84.27,84.27,0,0,1-10.4-.66,76.59,76.59,0,0,1-17.34-4.32,73,73,0,0,1-31.22-22.66A72.8,72.8,0,0,1,1.25,83.24C1.11,81.63,1,80,.94,78.5"/><path class="75c0f59f-ab74-40a7-a826-812a8469bdcc" d="M149.81,91.48a61,61,0,0,1-6.36,20V93.81A61.08,61.08,0,0,0,148.91,76Z"/><path class="75c0f59f-ab74-40a7-a826-812a8469bdcc" d="M65.42,133.77v15.84a76.81,76.81,0,0,1-17.35-4.32V129.82A80.84,80.84,0,0,0,65.42,133.77Z"/><path class="75c0f59f-ab74-40a7-a826-812a8469bdcc" d="M98.37,130.94v16.22A81.93,81.93,0,0,1,81,150.1v-16A80.59,80.59,0,0,0,98.37,130.94Z"/><path class="75c0f59f-ab74-40a7-a826-812a8469bdcc" d="M129.59,112.9v16.81a74.49,74.49,0,0,1-17.34,12V125.34A74.18,74.18,0,0,0,129.59,112.9Z"/><path class="f02e2961-ffa4-4972-b3ba-1578831637d4" d="M149.53,67.29c0,37-33.39,67-74.57,67S.38,104.3.38,67.29,35.77.27,77,.27,149.53,30.27,149.53,67.29Z"/><ellipse class="a22ec364-d21a-4d71-b687-72b372e9b119" cx="75.82" cy="68.35" rx="41.43" ry="37.23"/><rect class="f02e2961-ffa4-4972-b3ba-1578831637d4" x="53.28" y="58.78" width="45.09" height="17.02" rx="1.36" ry="1.36"/><polygon class="a938cf3c-6a15-4cb6-b06e-3e08fb5858a3" points="259.35 66.86 267.89 87.05 197.73 87.05 215.51 66.86 259.35 66.86"/><polygon class="a938cf3c-6a15-4cb6-b06e-3e08fb5858a3" points="184.07 19.73 160.23 36.44 160.23 63.58 184.53 47.26 184.07 19.73"/><polygon class="8e0530d1-e603-43de-9f2e-94bdcf277503" points="215.51 66.86 197.73 87.05 160.23 63.58 184.56 47.26 215.51 66.86"/><polygon class="fa2a99d9-ac6c-425f-868a-889bc8dd8fa0" points="290.33 47.26 310.23 58.37 267.89 87.05 259.35 66.86 290.33 47.26"/><polygon class="fa2a99d9-ac6c-425f-868a-889bc8dd8fa0" points="290.31 19.56 310.23 32.46 310.23 58.37 290.33 47.26 290.31 19.56"/><polygon class="c5694ee5-718f-4285-ab4d-8c31d11d6a57" points="261.36 0 217.54 0 184.07 19.73 184.55 47.26 215.54 66.84 259.36 66.84 290.35 47.26 290.35 19.58 261.36 0"/><polygon class="a938cf3c-6a15-4cb6-b06e-3e08fb5858a3" points="197.73 87.05 237.25 150 160.23 63.58 197.73 87.05"/><polygon class="ed2ed298-1bd4-46e3-924b-d37aa156858e" points="267.89 87.05 237.25 150 197.73 87.05 267.89 87.05"/><polygon class="1c36d048-1971-4323-a880-b38b7e839110" points="267.89 87.05 310.23 58.37 237.25 150 267.89 87.05"/><ellipse class="8fae484b-07f5-427e-9100-bf0fad3a5df9" cx="237.62" cy="33.05" rx="19.56" ry="11.02"/><path class="f4f87d09-24b3-48d8-b508-f712b3b987c7" d="M382.21,98.38c-.7,3-7.5,1.52-11.28.44,0,0,0,0,0-.07-1.79-5.75.74-8.17.74-8.17H381.8A14.64,14.64,0,0,1,382.21,98.38Z"/><path class="1f5d3186-2ce8-414e-ac40-5c7534594853" d="M385.34,136.24c-1.57,2.8-21.37,4.11-29.18,4.52a4.05,4.05,0,0,1-4.09-2.46L336.8,90.58h34.86c-1.26,1.91-1.36,4.81-.73,8.24C373.38,112.17,386.84,133.56,385.34,136.24Z"/><path class="1f5d3186-2ce8-414e-ac40-5c7534594853" d="M458.8,53.72c6.27,0,11.35,4.44,11.35,9.92s-5.08,9.92-11.35,9.92h0"/><path class="f4f87d09-24b3-48d8-b508-f712b3b987c7" d="M381.8,36.7V90.58c37,0,61.6,20.09,61.6,20.09V16.61S418.76,36.7,381.8,36.7Z"/><rect class="f5ed460b-9362-47ea-ae9d-64234f6da98f" x="443.4" y="9.77" width="15.4" height="107.75" rx="0.49" ry="0.49"/><path class="72a9efb7-b339-4540-b121-b13f2ef6d9e2" d="M329.88,36.7H381.8a0,0,0,0,1,0,0V90.58a0,0,0,0,1,0,0H329.88a2,2,0,0,1-2-2V38.68A2,2,0,0,1,329.88,36.7Z"/><path class="df2e3ec2-a8ce-49dd-a815-7133173bcedb" d="M554.57,84.53,485.34,25.89a8.13,8.13,0,0,1,3.54-.8H621.26a8.22,8.22,0,0,1,3.53.79L555.36,84.53A.6.6,0,0,1,554.57,84.53Z"/><path class="df2e3ec2-a8ce-49dd-a815-7133173bcedb" d="M537.65,77.31,481.43,121a10,10,0,0,1-1.36-5.08V34.61a10.09,10.09,0,0,1,1.3-5Z"/><path class="df2e3ec2-a8ce-49dd-a815-7133173bcedb" d="M568.07,80.9l56.55,43.83a8.23,8.23,0,0,1-3.36.71H488.88a8.23,8.23,0,0,1-3.36-.71L541.89,80.9l9.49,8a5.47,5.47,0,0,0,7.17,0Z"/><path class="df2e3ec2-a8ce-49dd-a815-7133173bcedb" d="M630.07,34.61v81.31a10,10,0,0,1-1.36,5.09l-56.39-43.7,56.45-47.68A10,10,0,0,1,630.07,34.61Z"/><path class="df2e3ec2-a8ce-49dd-a815-7133173bcedb" d="M714.47,84.5,645.24,26.06a8.22,8.22,0,0,1,3.53-.79H781.16a8.21,8.21,0,0,1,3.52.79L715.25,84.5A.58.58,0,0,1,714.47,84.5Z"/><path class="df2e3ec2-a8ce-49dd-a815-7133173bcedb" d="M697.54,77.3l-56.22,43.54a10,10,0,0,1-1.36-5.06v-81a10,10,0,0,1,1.3-5Z"/><path class="df2e3ec2-a8ce-49dd-a815-7133173bcedb" d="M763.68,125.27H648.77a8.23,8.23,0,0,1-3.36-.72l56.37-43.67,9.49,8a5.47,5.47,0,0,0,7.17,0l9.53-8,10.66,8.24a29.5,29.5,0,0,0-1.15,8.21C737.48,112.76,749.21,125.27,763.68,125.27Z"/><path class="df2e3ec2-a8ce-49dd-a815-7133173bcedb" d="M784.51,124.55a8.2,8.2,0,0,1-3.36.72H763.68a25,25,0,0,0,15.12-5.13Z"/><path class="df2e3ec2-a8ce-49dd-a815-7133173bcedb" d="M790,34.75v81a9.93,9.93,0,0,1-1.36,5.07l-5.78-4.47a28.8,28.8,0,0,0,7-19c0-15.44-11.73-27.95-26.19-27.95-9.89,0-18.5,5.85-23,14.48l-8.5-6.56,56.44-47.51A9.91,9.91,0,0,1,790,34.75Z"/><polyline class="33bb8e18-7855-4c95-9d9b-6f7799554f1d" points="765.98 84.03 783.53 96.44 765.98 111.95"/><line class="33bb8e18-7855-4c95-9d9b-6f7799554f1d" x1="782.94" y1="96.5" x2="742.44" y2="96.5"/><path class="df2e3ec2-a8ce-49dd-a815-7133173bcedb" d="M925.31,2.23,870.64,23.65,816,45.07c-15.22,6-21,22-10.44,28.68l20,12.84a2.49,2.49,0,0,0,.55.3L904.9,40.81l-45.18,62.46-2.6,3.54v41.64c0,1.86,3.21,2.52,4.44.9l20.2-26.88c10.72,6.54,29.49-.9,34.06-13.56l16.72-45.72L949.2,17.47C953.84,4.75,940.6-3.77,925.31,2.23Z"/><circle class="63a05568-081f-4017-8f14-b9b3b77c1778" cx="75" cy="235.47" r="75"/><circle class="e1b71a96-13c5-45da-99bb-0c085a7844b4" cx="75" cy="235.47" r="52.17"/><path class="6e5d6506-64f9-4890-9fc8-72f5ae573e0d" d="M74.76,261.83v0Z"/><path class="6e5d6506-64f9-4890-9fc8-72f5ae573e0d" d="M100.81,235.75h0Z"/><path class="08988c3d-c45b-4176-9b5e-061691d4dcb8" d="M100.81,228.25H82.26V209.67a7.5,7.5,0,0,0-15,0v18.58H48.64a7.5,7.5,0,1,0,0,15H67.26v18.58a7.5,7.5,0,0,0,15,0V243.25h18.55a7.5,7.5,0,0,0,0-15Z"/><circle class="e4968bee-1206-41c9-a2ad-1bee11911cc2" cx="235.12" cy="236" r="75"/><path class="e64dbe26-ad4b-4427-b689-2d8bf4ffbfc0" d="M183.43,236a75,75,0,0,1,63.35-74.1,75.92,75.92,0,0,0-11.66-.9,75,75,0,0,0,0,150,75.82,75.82,0,0,0,11.66-.9A75,75,0,0,1,183.43,236Z"/><path class="9e776ca2-e4fd-4781-87e5-a3c773ac52b8" d="M235.12,272.25a31.56,31.56,0,0,1-29.54-20.46,2.28,2.28,0,0,1,4.26-1.6,27,27,0,0,0,50.57,0,2.27,2.27,0,1,1,4.25,1.6,31.56,31.56,0,0,1-29.54,20.46Z"/><path class="9e776ca2-e4fd-4781-87e5-a3c773ac52b8" d="M219.36,227.56a2.27,2.27,0,0,1-2.27-2.27,9.18,9.18,0,0,0-18.36,0,2.28,2.28,0,0,1-4.55,0,13.73,13.73,0,1,1,27.45,0A2.27,2.27,0,0,1,219.36,227.56Z"/><path class="9e776ca2-e4fd-4781-87e5-a3c773ac52b8" d="M274.1,227.56a2.28,2.28,0,0,1-2.28-2.27,9.18,9.18,0,0,0-18.36,0,2.27,2.27,0,1,1-4.54,0,13.73,13.73,0,1,1,27.45,0A2.27,2.27,0,0,1,274.1,227.56Z"/><path class="0f6a9bd1-12aa-4d97-bb3a-642d242dd432" d="M173.06,248.26a2.34,2.34,0,0,1-.74-.12,2.27,2.27,0,0,1-1.41-2.89l3.35-9.69a2.28,2.28,0,0,1,4.3,1.49l-3.35,9.68a2.28,2.28,0,0,1-2.15,1.53Z"/><path class="0f6a9bd1-12aa-4d97-bb3a-642d242dd432" d="M183.58,248.26a2.34,2.34,0,0,1-.74-.12,2.27,2.27,0,0,1-1.41-2.89l3.35-9.69a2.28,2.28,0,0,1,4.3,1.49l-3.35,9.68a2.28,2.28,0,0,1-2.15,1.53Z"/><path class="0f6a9bd1-12aa-4d97-bb3a-642d242dd432" d="M283.62,248.26a2.43,2.43,0,0,1-.74-.12,2.27,2.27,0,0,1-1.41-2.89l3.36-9.69a2.27,2.27,0,1,1,4.29,1.49l-3.35,9.68a2.28,2.28,0,0,1-2.15,1.53Z"/><path class="0f6a9bd1-12aa-4d97-bb3a-642d242dd432" d="M294.14,248.26a2.43,2.43,0,0,1-.74-.12,2.27,2.27,0,0,1-1.41-2.89l3.36-9.69a2.27,2.27,0,1,1,4.29,1.49l-3.35,9.68a2.28,2.28,0,0,1-2.15,1.53Z"/></g></g></svg>